<?xml version="1.0" encoding="utf-8" standalone="no"?>
<!DOCTYPE svg PUBLIC "-//W3C//DTD SVG 1.1//EN"
  "http://www.w3.org/Graphics/SVG/1.1/DTD/svg11.dtd">
<!-- Created with matplotlib (https://matplotlib.org/) -->
<svg height="345.6pt" version="1.1" viewBox="0 0 460.8 345.6" width="460.8pt" xmlns="http://www.w3.org/2000/svg" xmlns:xlink="http://www.w3.org/1999/xlink">
 <metadata>
  <rdf:RDF xmlns:cc="http://creativecommons.org/ns#" xmlns:dc="http://purl.org/dc/elements/1.1/" xmlns:rdf="http://www.w3.org/1999/02/22-rdf-syntax-ns#">
   <cc:Work>
    <dc:type rdf:resource="http://purl.org/dc/dcmitype/StillImage"/>
    <dc:date>2022-09-12T15:38:38.218130</dc:date>
    <dc:format>image/svg+xml</dc:format>
    <dc:creator>
     <cc:Agent>
      <dc:title>Matplotlib v3.3.4, https://matplotlib.org/</dc:title>
     </cc:Agent>
    </dc:creator>
   </cc:Work>
  </rdf:RDF>
 </metadata>
 <defs>
  <style type="text/css">*{stroke-linecap:butt;stroke-linejoin:round;}</style>
 </defs>
 <g id="figure_1">
  <g id="patch_1">
   <path d="M 0 345.6 
L 460.8 345.6 
L 460.8 0 
L 0 0 
z
" style="fill:#ffffff;"/>
  </g>
  <g id="axes_1">
   <g id="patch_2">
    <path d="M 57.6 307.584 
L 414.72 307.584 
L 414.72 41.472 
L 57.6 41.472 
z
" style="fill:#ffffff;"/>
   </g>
   <g id="matplotlib.axis_1">
    <g id="xtick_1">
     <g id="line2d_1">
      <defs>
       <path d="M 0 0 
L 0 3.5 
" id="m6ee4ae1ae0" style="stroke:#000000;stroke-width:0.8;"/>
      </defs>
      <g>
       <use style="stroke:#000000;stroke-width:0.8;" x="73.507748" xlink:href="#m6ee4ae1ae0" y="307.584"/>
      </g>
     </g>
     <g id="text_1">
      <!-- 0.0 -->
      <g transform="translate(65.556185 322.182437)scale(0.1 -0.1)">
       <defs>
        <path d="M 31.78125 66.40625 
Q 24.171875 66.40625 20.328125 58.90625 
Q 16.5 51.421875 16.5 36.375 
Q 16.5 21.390625 20.328125 13.890625 
Q 24.171875 6.390625 31.78125 6.390625 
Q 39.453125 6.390625 43.28125 13.890625 
Q 47.125 21.390625 47.125 36.375 
Q 47.125 51.421875 43.28125 58.90625 
Q 39.453125 66.40625 31.78125 66.40625 
z
M 31.78125 74.21875 
Q 44.046875 74.21875 50.515625 64.515625 
Q 56.984375 54.828125 56.984375 36.375 
Q 56.984375 17.96875 50.515625 8.265625 
Q 44.046875 -1.421875 31.78125 -1.421875 
Q 19.53125 -1.421875 13.0625 8.265625 
Q 6.59375 17.96875 6.59375 36.375 
Q 6.59375 54.828125 13.0625 64.515625 
Q 19.53125 74.21875 31.78125 74.21875 
z
" id="DejaVuSans-48"/>
        <path d="M 10.6875 12.40625 
L 21 12.40625 
L 21 0 
L 10.6875 0 
z
" id="DejaVuSans-46"/>
       </defs>
       <use xlink:href="#DejaVuSans-48"/>
       <use x="63.623047" xlink:href="#DejaVuSans-46"/>
       <use x="95.410156" xlink:href="#DejaVuSans-48"/>
      </g>
     </g>
    </g>
    <g id="xtick_2">
     <g id="line2d_2">
      <g>
       <use style="stroke:#000000;stroke-width:0.8;" x="138.503653" xlink:href="#m6ee4ae1ae0" y="307.584"/>
      </g>
     </g>
     <g id="text_2">
      <!-- 0.2 -->
      <g transform="translate(130.55209 322.182437)scale(0.1 -0.1)">
       <defs>
        <path d="M 19.1875 8.296875 
L 53.609375 8.296875 
L 53.609375 0 
L 7.328125 0 
L 7.328125 8.296875 
Q 12.9375 14.109375 22.625 23.890625 
Q 32.328125 33.6875 34.8125 36.53125 
Q 39.546875 41.84375 41.421875 45.53125 
Q 43.3125 49.21875 43.3125 52.78125 
Q 43.3125 58.59375 39.234375 62.25 
Q 35.15625 65.921875 28.609375 65.921875 
Q 23.96875 65.921875 18.8125 64.3125 
Q 13.671875 62.703125 7.8125 59.421875 
L 7.8125 69.390625 
Q 13.765625 71.78125 18.9375 73 
Q 24.125 74.21875 28.421875 74.21875 
Q 39.75 74.21875 46.484375 68.546875 
Q 53.21875 62.890625 53.21875 53.421875 
Q 53.21875 48.921875 51.53125 44.890625 
Q 49.859375 40.875 45.40625 35.40625 
Q 44.1875 33.984375 37.640625 27.21875 
Q 31.109375 20.453125 19.1875 8.296875 
z
" id="DejaVuSans-50"/>
       </defs>
       <use xlink:href="#DejaVuSans-48"/>
       <use x="63.623047" xlink:href="#DejaVuSans-46"/>
       <use x="95.410156" xlink:href="#DejaVuSans-50"/>
      </g>
     </g>
    </g>
    <g id="xtick_3">
     <g id="line2d_3">
      <g>
       <use style="stroke:#000000;stroke-width:0.8;" x="203.499558" xlink:href="#m6ee4ae1ae0" y="307.584"/>
      </g>
     </g>
     <g id="text_3">
      <!-- 0.4 -->
      <g transform="translate(195.547995 322.182437)scale(0.1 -0.1)">
       <defs>
        <path d="M 37.796875 64.3125 
L 12.890625 25.390625 
L 37.796875 25.390625 
z
M 35.203125 72.90625 
L 47.609375 72.90625 
L 47.609375 25.390625 
L 58.015625 25.390625 
L 58.015625 17.1875 
L 47.609375 17.1875 
L 47.609375 0 
L 37.796875 0 
L 37.796875 17.1875 
L 4.890625 17.1875 
L 4.890625 26.703125 
z
" id="DejaVuSans-52"/>
       </defs>
       <use xlink:href="#DejaVuSans-48"/>
       <use x="63.623047" xlink:href="#DejaVuSans-46"/>
       <use x="95.410156" xlink:href="#DejaVuSans-52"/>
      </g>
     </g>
    </g>
    <g id="xtick_4">
     <g id="line2d_4">
      <g>
       <use style="stroke:#000000;stroke-width:0.8;" x="268.495463" xlink:href="#m6ee4ae1ae0" y="307.584"/>
      </g>
     </g>
     <g id="text_4">
      <!-- 0.6 -->
      <g transform="translate(260.5439 322.182437)scale(0.1 -0.1)">
       <defs>
        <path d="M 33.015625 40.375 
Q 26.375 40.375 22.484375 35.828125 
Q 18.609375 31.296875 18.609375 23.390625 
Q 18.609375 15.53125 22.484375 10.953125 
Q 26.375 6.390625 33.015625 6.390625 
Q 39.65625 6.390625 43.53125 10.953125 
Q 47.40625 15.53125 47.40625 23.390625 
Q 47.40625 31.296875 43.53125 35.828125 
Q 39.65625 40.375 33.015625 40.375 
z
M 52.59375 71.296875 
L 52.59375 62.3125 
Q 48.875 64.0625 45.09375 64.984375 
Q 41.3125 65.921875 37.59375 65.921875 
Q 27.828125 65.921875 22.671875 59.328125 
Q 17.53125 52.734375 16.796875 39.40625 
Q 19.671875 43.65625 24.015625 45.921875 
Q 28.375 48.1875 33.59375 48.1875 
Q 44.578125 48.1875 50.953125 41.515625 
Q 57.328125 34.859375 57.328125 23.390625 
Q 57.328125 12.15625 50.6875 5.359375 
Q 44.046875 -1.421875 33.015625 -1.421875 
Q 20.359375 -1.421875 13.671875 8.265625 
Q 6.984375 17.96875 6.984375 36.375 
Q 6.984375 53.65625 15.1875 63.9375 
Q 23.390625 74.21875 37.203125 74.21875 
Q 40.921875 74.21875 44.703125 73.484375 
Q 48.484375 72.75 52.59375 71.296875 
z
" id="DejaVuSans-54"/>
       </defs>
       <use xlink:href="#DejaVuSans-48"/>
       <use x="63.623047" xlink:href="#DejaVuSans-46"/>
       <use x="95.410156" xlink:href="#DejaVuSans-54"/>
      </g>
     </g>
    </g>
    <g id="xtick_5">
     <g id="line2d_5">
      <g>
       <use style="stroke:#000000;stroke-width:0.8;" x="333.491368" xlink:href="#m6ee4ae1ae0" y="307.584"/>
      </g>
     </g>
     <g id="text_5">
      <!-- 0.8 -->
      <g transform="translate(325.539805 322.182437)scale(0.1 -0.1)">
       <defs>
        <path d="M 31.78125 34.625 
Q 24.75 34.625 20.71875 30.859375 
Q 16.703125 27.09375 16.703125 20.515625 
Q 16.703125 13.921875 20.71875 10.15625 
Q 24.75 6.390625 31.78125 6.390625 
Q 38.8125 6.390625 42.859375 10.171875 
Q 46.921875 13.96875 46.921875 20.515625 
Q 46.921875 27.09375 42.890625 30.859375 
Q 38.875 34.625 31.78125 34.625 
z
M 21.921875 38.8125 
Q 15.578125 40.375 12.03125 44.71875 
Q 8.5 49.078125 8.5 55.328125 
Q 8.5 64.0625 14.71875 69.140625 
Q 20.953125 74.21875 31.78125 74.21875 
Q 42.671875 74.21875 48.875 69.140625 
Q 55.078125 64.0625 55.078125 55.328125 
Q 55.078125 49.078125 51.53125 44.71875 
Q 48 40.375 41.703125 38.8125 
Q 48.828125 37.15625 52.796875 32.3125 
Q 56.78125 27.484375 56.78125 20.515625 
Q 56.78125 9.90625 50.3125 4.234375 
Q 43.84375 -1.421875 31.78125 -1.421875 
Q 19.734375 -1.421875 13.25 4.234375 
Q 6.78125 9.90625 6.78125 20.515625 
Q 6.78125 27.484375 10.78125 32.3125 
Q 14.796875 37.15625 21.921875 38.8125 
z
M 18.3125 54.390625 
Q 18.3125 48.734375 21.84375 45.5625 
Q 25.390625 42.390625 31.78125 42.390625 
Q 38.140625 42.390625 41.71875 45.5625 
Q 45.3125 48.734375 45.3125 54.390625 
Q 45.3125 60.0625 41.71875 63.234375 
Q 38.140625 66.40625 31.78125 66.40625 
Q 25.390625 66.40625 21.84375 63.234375 
Q 18.3125 60.0625 18.3125 54.390625 
z
" id="DejaVuSans-56"/>
       </defs>
       <use xlink:href="#DejaVuSans-48"/>
       <use x="63.623047" xlink:href="#DejaVuSans-46"/>
       <use x="95.410156" xlink:href="#DejaVuSans-56"/>
      </g>
     </g>
    </g>
    <g id="xtick_6">
     <g id="line2d_6">
      <g>
       <use style="stroke:#000000;stroke-width:0.8;" x="398.487273" xlink:href="#m6ee4ae1ae0" y="307.584"/>
      </g>
     </g>
     <g id="text_6">
      <!-- 1.0 -->
      <g transform="translate(390.53571 322.182437)scale(0.1 -0.1)">
       <defs>
        <path d="M 12.40625 8.296875 
L 28.515625 8.296875 
L 28.515625 63.921875 
L 10.984375 60.40625 
L 10.984375 69.390625 
L 28.421875 72.90625 
L 38.28125 72.90625 
L 38.28125 8.296875 
L 54.390625 8.296875 
L 54.390625 0 
L 12.40625 0 
z
" id="DejaVuSans-49"/>
       </defs>
       <use xlink:href="#DejaVuSans-49"/>
       <use x="63.623047" xlink:href="#DejaVuSans-46"/>
       <use x="95.410156" xlink:href="#DejaVuSans-48"/>
      </g>
     </g>
    </g>
    <g id="text_7">
     <!-- x -->
     <g transform="translate(233.200625 335.860562)scale(0.1 -0.1)">
      <defs>
       <path d="M 54.890625 54.6875 
L 35.109375 28.078125 
L 55.90625 0 
L 45.3125 0 
L 29.390625 21.484375 
L 13.484375 0 
L 2.875 0 
L 24.125 28.609375 
L 4.6875 54.6875 
L 15.28125 54.6875 
L 29.78125 35.203125 
L 44.28125 54.6875 
z
" id="DejaVuSans-120"/>
      </defs>
      <use xlink:href="#DejaVuSans-120"/>
     </g>
    </g>
   </g>
   <g id="matplotlib.axis_2">
    <g id="ytick_1">
     <g id="line2d_7">
      <defs>
       <path d="M 0 0 
L -3.5 0 
" id="me5f7762a6b" style="stroke:#000000;stroke-width:0.8;"/>
      </defs>
      <g>
       <use style="stroke:#000000;stroke-width:0.8;" x="57.6" xlink:href="#me5f7762a6b" y="297.336575"/>
      </g>
     </g>
     <g id="text_8">
      <!-- −12 -->
      <g transform="translate(29.495313 301.135794)scale(0.1 -0.1)">
       <defs>
        <path d="M 10.59375 35.5 
L 73.1875 35.5 
L 73.1875 27.203125 
L 10.59375 27.203125 
z
" id="DejaVuSans-8722"/>
       </defs>
       <use xlink:href="#DejaVuSans-8722"/>
       <use x="83.789062" xlink:href="#DejaVuSans-49"/>
       <use x="147.412109" xlink:href="#DejaVuSans-50"/>
      </g>
     </g>
    </g>
    <g id="ytick_2">
     <g id="line2d_8">
      <g>
       <use style="stroke:#000000;stroke-width:0.8;" x="57.6" xlink:href="#me5f7762a6b" y="251.867488"/>
      </g>
     </g>
     <g id="text_9">
      <!-- −10 -->
      <g transform="translate(29.495313 255.666707)scale(0.1 -0.1)">
       <use xlink:href="#DejaVuSans-8722"/>
       <use x="83.789062" xlink:href="#DejaVuSans-49"/>
       <use x="147.412109" xlink:href="#DejaVuSans-48"/>
      </g>
     </g>
    </g>
    <g id="ytick_3">
     <g id="line2d_9">
      <g>
       <use style="stroke:#000000;stroke-width:0.8;" x="57.6" xlink:href="#me5f7762a6b" y="206.398401"/>
      </g>
     </g>
     <g id="text_10">
      <!-- −8 -->
      <g transform="translate(35.857813 210.19762)scale(0.1 -0.1)">
       <use xlink:href="#DejaVuSans-8722"/>
       <use x="83.789062" xlink:href="#DejaVuSans-56"/>
      </g>
     </g>
    </g>
    <g id="ytick_4">
     <g id="line2d_10">
      <g>
       <use style="stroke:#000000;stroke-width:0.8;" x="57.6" xlink:href="#me5f7762a6b" y="160.929315"/>
      </g>
     </g>
     <g id="text_11">
      <!-- −6 -->
      <g transform="translate(35.857813 164.728533)scale(0.1 -0.1)">
       <use xlink:href="#DejaVuSans-8722"/>
       <use x="83.789062" xlink:href="#DejaVuSans-54"/>
      </g>
     </g>
    </g>
    <g id="ytick_5">
     <g id="line2d_11">
      <g>
       <use style="stroke:#000000;stroke-width:0.8;" x="57.6" xlink:href="#me5f7762a6b" y="115.460228"/>
      </g>
     </g>
     <g id="text_12">
      <!-- −4 -->
      <g transform="translate(35.857813 119.259446)scale(0.1 -0.1)">
       <use xlink:href="#DejaVuSans-8722"/>
       <use x="83.789062" xlink:href="#DejaVuSans-52"/>
      </g>
     </g>
    </g>
    <g id="ytick_6">
     <g id="line2d_12">
      <g>
       <use style="stroke:#000000;stroke-width:0.8;" x="57.6" xlink:href="#me5f7762a6b" y="69.991141"/>
      </g>
     </g>
     <g id="text_13">
      <!-- −2 -->
      <g transform="translate(35.857813 73.79036)scale(0.1 -0.1)">
       <use xlink:href="#DejaVuSans-8722"/>
       <use x="83.789062" xlink:href="#DejaVuSans-50"/>
      </g>
     </g>
    </g>
    <g id="text_14">
     <!-- log(abs(v-u)) -->
     <g transform="translate(23.415625 206.597531)rotate(-90)scale(0.1 -0.1)">
      <defs>
       <path d="M 9.421875 75.984375 
L 18.40625 75.984375 
L 18.40625 0 
L 9.421875 0 
z
" id="DejaVuSans-108"/>
       <path d="M 30.609375 48.390625 
Q 23.390625 48.390625 19.1875 42.75 
Q 14.984375 37.109375 14.984375 27.296875 
Q 14.984375 17.484375 19.15625 11.84375 
Q 23.34375 6.203125 30.609375 6.203125 
Q 37.796875 6.203125 41.984375 11.859375 
Q 46.1875 17.53125 46.1875 27.296875 
Q 46.1875 37.015625 41.984375 42.703125 
Q 37.796875 48.390625 30.609375 48.390625 
z
M 30.609375 56 
Q 42.328125 56 49.015625 48.375 
Q 55.71875 40.765625 55.71875 27.296875 
Q 55.71875 13.875 49.015625 6.21875 
Q 42.328125 -1.421875 30.609375 -1.421875 
Q 18.84375 -1.421875 12.171875 6.21875 
Q 5.515625 13.875 5.515625 27.296875 
Q 5.515625 40.765625 12.171875 48.375 
Q 18.84375 56 30.609375 56 
z
" id="DejaVuSans-111"/>
       <path d="M 45.40625 27.984375 
Q 45.40625 37.75 41.375 43.109375 
Q 37.359375 48.484375 30.078125 48.484375 
Q 22.859375 48.484375 18.828125 43.109375 
Q 14.796875 37.75 14.796875 27.984375 
Q 14.796875 18.265625 18.828125 12.890625 
Q 22.859375 7.515625 30.078125 7.515625 
Q 37.359375 7.515625 41.375 12.890625 
Q 45.40625 18.265625 45.40625 27.984375 
z
M 54.390625 6.78125 
Q 54.390625 -7.171875 48.1875 -13.984375 
Q 42 -20.796875 29.203125 -20.796875 
Q 24.46875 -20.796875 20.265625 -20.09375 
Q 16.0625 -19.390625 12.109375 -17.921875 
L 12.109375 -9.1875 
Q 16.0625 -11.328125 19.921875 -12.34375 
Q 23.78125 -13.375 27.78125 -13.375 
Q 36.625 -13.375 41.015625 -8.765625 
Q 45.40625 -4.15625 45.40625 5.171875 
L 45.40625 9.625 
Q 42.625 4.78125 38.28125 2.390625 
Q 33.9375 0 27.875 0 
Q 17.828125 0 11.671875 7.65625 
Q 5.515625 15.328125 5.515625 27.984375 
Q 5.515625 40.671875 11.671875 48.328125 
Q 17.828125 56 27.875 56 
Q 33.9375 56 38.28125 53.609375 
Q 42.625 51.21875 45.40625 46.390625 
L 45.40625 54.6875 
L 54.390625 54.6875 
z
" id="DejaVuSans-103"/>
       <path d="M 31 75.875 
Q 24.46875 64.65625 21.28125 53.65625 
Q 18.109375 42.671875 18.109375 31.390625 
Q 18.109375 20.125 21.3125 9.0625 
Q 24.515625 -2 31 -13.1875 
L 23.1875 -13.1875 
Q 15.875 -1.703125 12.234375 9.375 
Q 8.59375 20.453125 8.59375 31.390625 
Q 8.59375 42.28125 12.203125 53.3125 
Q 15.828125 64.359375 23.1875 75.875 
z
" id="DejaVuSans-40"/>
       <path d="M 34.28125 27.484375 
Q 23.390625 27.484375 19.1875 25 
Q 14.984375 22.515625 14.984375 16.5 
Q 14.984375 11.71875 18.140625 8.90625 
Q 21.296875 6.109375 26.703125 6.109375 
Q 34.1875 6.109375 38.703125 11.40625 
Q 43.21875 16.703125 43.21875 25.484375 
L 43.21875 27.484375 
z
M 52.203125 31.203125 
L 52.203125 0 
L 43.21875 0 
L 43.21875 8.296875 
Q 40.140625 3.328125 35.546875 0.953125 
Q 30.953125 -1.421875 24.3125 -1.421875 
Q 15.921875 -1.421875 10.953125 3.296875 
Q 6 8.015625 6 15.921875 
Q 6 25.140625 12.171875 29.828125 
Q 18.359375 34.515625 30.609375 34.515625 
L 43.21875 34.515625 
L 43.21875 35.40625 
Q 43.21875 41.609375 39.140625 45 
Q 35.0625 48.390625 27.6875 48.390625 
Q 23 48.390625 18.546875 47.265625 
Q 14.109375 46.140625 10.015625 43.890625 
L 10.015625 52.203125 
Q 14.9375 54.109375 19.578125 55.046875 
Q 24.21875 56 28.609375 56 
Q 40.484375 56 46.34375 49.84375 
Q 52.203125 43.703125 52.203125 31.203125 
z
" id="DejaVuSans-97"/>
       <path d="M 48.6875 27.296875 
Q 48.6875 37.203125 44.609375 42.84375 
Q 40.53125 48.484375 33.40625 48.484375 
Q 26.265625 48.484375 22.1875 42.84375 
Q 18.109375 37.203125 18.109375 27.296875 
Q 18.109375 17.390625 22.1875 11.75 
Q 26.265625 6.109375 33.40625 6.109375 
Q 40.53125 6.109375 44.609375 11.75 
Q 48.6875 17.390625 48.6875 27.296875 
z
M 18.109375 46.390625 
Q 20.953125 51.265625 25.265625 53.625 
Q 29.59375 56 35.59375 56 
Q 45.5625 56 51.78125 48.09375 
Q 58.015625 40.1875 58.015625 27.296875 
Q 58.015625 14.40625 51.78125 6.484375 
Q 45.5625 -1.421875 35.59375 -1.421875 
Q 29.59375 -1.421875 25.265625 0.953125 
Q 20.953125 3.328125 18.109375 8.203125 
L 18.109375 0 
L 9.078125 0 
L 9.078125 75.984375 
L 18.109375 75.984375 
z
" id="DejaVuSans-98"/>
       <path d="M 44.28125 53.078125 
L 44.28125 44.578125 
Q 40.484375 46.53125 36.375 47.5 
Q 32.28125 48.484375 27.875 48.484375 
Q 21.1875 48.484375 17.84375 46.4375 
Q 14.5 44.390625 14.5 40.28125 
Q 14.5 37.15625 16.890625 35.375 
Q 19.28125 33.59375 26.515625 31.984375 
L 29.59375 31.296875 
Q 39.15625 29.25 43.1875 25.515625 
Q 47.21875 21.78125 47.21875 15.09375 
Q 47.21875 7.46875 41.1875 3.015625 
Q 35.15625 -1.421875 24.609375 -1.421875 
Q 20.21875 -1.421875 15.453125 -0.5625 
Q 10.6875 0.296875 5.421875 2 
L 5.421875 11.28125 
Q 10.40625 8.6875 15.234375 7.390625 
Q 20.0625 6.109375 24.8125 6.109375 
Q 31.15625 6.109375 34.5625 8.28125 
Q 37.984375 10.453125 37.984375 14.40625 
Q 37.984375 18.0625 35.515625 20.015625 
Q 33.0625 21.96875 24.703125 23.78125 
L 21.578125 24.515625 
Q 13.234375 26.265625 9.515625 29.90625 
Q 5.8125 33.546875 5.8125 39.890625 
Q 5.8125 47.609375 11.28125 51.796875 
Q 16.75 56 26.8125 56 
Q 31.78125 56 36.171875 55.265625 
Q 40.578125 54.546875 44.28125 53.078125 
z
" id="DejaVuSans-115"/>
       <path d="M 2.984375 54.6875 
L 12.5 54.6875 
L 29.59375 8.796875 
L 46.6875 54.6875 
L 56.203125 54.6875 
L 35.6875 0 
L 23.484375 0 
z
" id="DejaVuSans-118"/>
       <path d="M 4.890625 31.390625 
L 31.203125 31.390625 
L 31.203125 23.390625 
L 4.890625 23.390625 
z
" id="DejaVuSans-45"/>
       <path d="M 8.5 21.578125 
L 8.5 54.6875 
L 17.484375 54.6875 
L 17.484375 21.921875 
Q 17.484375 14.15625 20.5 10.265625 
Q 23.53125 6.390625 29.59375 6.390625 
Q 36.859375 6.390625 41.078125 11.03125 
Q 45.3125 15.671875 45.3125 23.6875 
L 45.3125 54.6875 
L 54.296875 54.6875 
L 54.296875 0 
L 45.3125 0 
L 45.3125 8.40625 
Q 42.046875 3.421875 37.71875 1 
Q 33.40625 -1.421875 27.6875 -1.421875 
Q 18.265625 -1.421875 13.375 4.4375 
Q 8.5 10.296875 8.5 21.578125 
z
M 31.109375 56 
z
" id="DejaVuSans-117"/>
       <path d="M 8.015625 75.875 
L 15.828125 75.875 
Q 23.140625 64.359375 26.78125 53.3125 
Q 30.421875 42.28125 30.421875 31.390625 
Q 30.421875 20.453125 26.78125 9.375 
Q 23.140625 -1.703125 15.828125 -13.1875 
L 8.015625 -13.1875 
Q 14.5 -2 17.703125 9.0625 
Q 20.90625 20.125 20.90625 31.390625 
Q 20.90625 42.671875 17.703125 53.65625 
Q 14.5 64.65625 8.015625 75.875 
z
" id="DejaVuSans-41"/>
      </defs>
      <use xlink:href="#DejaVuSans-108"/>
      <use x="27.783203" xlink:href="#DejaVuSans-111"/>
      <use x="88.964844" xlink:href="#DejaVuSans-103"/>
      <use x="152.441406" xlink:href="#DejaVuSans-40"/>
      <use x="191.455078" xlink:href="#DejaVuSans-97"/>
      <use x="252.734375" xlink:href="#DejaVuSans-98"/>
      <use x="316.210938" xlink:href="#DejaVuSans-115"/>
      <use x="368.310547" xlink:href="#DejaVuSans-40"/>
      <use x="407.324219" xlink:href="#DejaVuSans-118"/>
      <use x="463.878906" xlink:href="#DejaVuSans-45"/>
      <use x="499.962891" xlink:href="#DejaVuSans-117"/>
      <use x="563.341797" xlink:href="#DejaVuSans-41"/>
      <use x="602.355469" xlink:href="#DejaVuSans-41"/>
     </g>
    </g>
   </g>
   <g id="line2d_13">
    <path clip-path="url(#pb8207046fa)" d="M 106.0057 55.767931 
L 138.503653 53.568 
L 171.001605 53.783636 
L 203.499558 54.902203 
L 235.99751 56.533324 
L 268.495463 58.646618 
L 300.993415 61.46308 
L 333.491368 65.474763 
L 365.98932 72.297318 
L 398.487273 295.488 
" style="fill:none;stroke:#1f77b4;stroke-linecap:square;stroke-width:1.5;"/>
   </g>
   <g id="line2d_14">
    <path clip-path="url(#pb8207046fa)" d="M 76.757543 120.022129 
L 80.007338 110.221077 
L 83.257133 109.656724 
L 86.506929 105.294294 
L 89.756724 105.653369 
L 93.006519 104.94782 
L 96.256314 103.975874 
L 99.50611 102.542421 
L 102.755905 101.058612 
L 106.0057 101.058612 
L 109.255495 101.058612 
L 112.505291 99.373943 
L 115.755086 100.18039 
L 119.004881 99.373943 
L 122.254676 99.972519 
L 125.504472 99.373943 
L 128.754267 99.182219 
L 132.004062 99.373943 
L 135.253857 98.80959 
L 138.503653 98.275758 
L 141.753448 98.62842 
L 145.003243 97.606112 
L 148.253038 98.62842 
L 151.502834 97.935259 
L 154.752629 98.994146 
L 158.002424 98.80959 
L 161.252219 99.373943 
L 164.502015 99.569464 
L 167.75181 97.935259 
L 171.001605 98.994146 
L 174.2514 98.450514 
L 177.501196 98.62842 
L 180.750991 98.994146 
L 184.000786 98.80959 
L 187.250581 99.182219 
L 190.500377 99.768935 
L 193.750172 99.768935 
L 196.999967 98.62842 
L 200.249762 99.972519 
L 203.499558 99.569464 
L 206.749353 100.609739 
L 209.999148 101.29094 
L 213.248943 100.609739 
L 216.498739 100.831625 
L 219.748534 101.528866 
L 222.998329 100.18039 
L 226.248124 101.058612 
L 229.49792 102.022644 
L 232.747715 102.279112 
L 235.99751 102.279112 
L 239.247305 101.058612 
L 242.497101 101.528866 
L 245.746896 101.058612 
L 248.996691 101.528866 
L 252.246486 103.377297 
L 255.496282 103.67205 
L 258.746077 102.279112 
L 261.995872 104.613094 
L 265.245667 102.022644 
L 268.495463 103.091089 
L 271.745258 105.294294 
L 274.995053 104.613094 
L 278.244848 104.94782 
L 281.494644 105.653369 
L 284.744439 103.67205 
L 287.994234 105.653369 
L 291.244029 104.613094 
L 294.493825 107.675404 
L 297.74362 107.675404 
L 300.993415 107.675404 
L 304.24321 108.134719 
L 307.493006 109.122892 
L 310.742801 106.025998 
L 313.992596 107.675404 
L 317.242391 109.656724 
L 320.492187 107.23651 
L 323.741982 109.656724 
L 326.991777 107.23651 
L 330.241572 110.221077 
L 333.491368 108.616448 
L 336.741163 112.869778 
L 339.990958 110.819653 
L 343.240753 109.122892 
L 346.490549 114.519184 
L 349.740344 112.138073 
L 352.990139 111.456873 
L 356.239934 118.981853 
L 359.48973 116.500503 
L 362.739525 115.460228 
L 365.98932 113.910053 
L 369.239115 127.347637 
L 372.488911 124.26341 
L 375.738706 122.108486 
L 378.988501 120.503858 
L 382.238296 119.268061 
L 385.488092 118.169876 
L 388.737887 132.95562 
L 391.987682 137.253727 
L 395.237477 144.278677 
L 398.487273 295.488 
" style="fill:none;stroke:#ff7f0e;stroke-linecap:square;stroke-width:1.5;"/>
   </g>
   <g id="line2d_15">
    <path clip-path="url(#pb8207046fa)" d="M 73.832727 122.34358 
L 74.157707 160.929315 
L 74.482686 123.344283 
L 74.807666 137.253727 
L 75.132645 127.682364 
L 75.457625 125.547488 
L 75.782604 141.716396 
L 76.432563 127.023887 
L 76.757543 125.276964 
L 77.082523 126.111841 
L 77.732482 138.194771 
L 78.057461 124.507212 
L 78.382441 138.194771 
L 78.70742 124.507212 
L 79.0324 124.507212 
L 79.357379 127.347637 
L 79.682359 124.507212 
L 80.007338 127.347637 
L 80.332318 131.350992 
L 80.657297 131.350992 
L 80.982277 127.347637 
L 81.307256 127.347637 
M 81.957215 122.304007 
L 82.282195 131.350992 
L 82.607174 131.350992 
L 82.932154 124.507212 
L 83.257133 131.350992 
L 83.582113 122.304007 
L 83.907093 122.304007 
L 84.232072 131.350992 
L 84.557052 127.347637 
L 84.882031 138.194771 
L 85.207011 127.347637 
L 85.53199 127.347637 
L 85.85697 124.507212 
L 86.181949 124.507212 
L 86.506929 131.350992 
L 86.831908 122.304007 
L 87.156888 124.507212 
L 87.481867 138.194771 
L 87.806847 127.347637 
L 88.131826 127.347637 
L 88.456806 131.350992 
M 89.106765 131.350992 
L 89.431744 131.350992 
L 89.756724 127.347637 
L 90.081704 138.194771 
L 90.406683 131.350992 
M 91.056642 122.304007 
L 91.381622 122.304007 
L 91.706601 138.194771 
L 92.031581 131.350992 
M 92.68154 131.350992 
L 93.006519 138.194771 
L 93.331499 122.304007 
L 93.656478 124.507212 
L 93.981458 138.194771 
L 94.306437 138.194771 
L 94.631417 124.507212 
L 94.956396 122.304007 
L 95.281376 138.194771 
L 95.606355 138.194771 
L 95.931335 127.347637 
L 96.256314 131.350992 
L 96.581294 124.507212 
L 96.906274 122.304007 
L 97.231253 138.194771 
L 97.556233 138.194771 
L 97.881212 124.507212 
L 98.206192 124.507212 
L 98.531171 138.194771 
M 99.18113 124.507212 
L 99.50611 127.347637 
L 99.831089 122.304007 
L 100.156069 127.347637 
L 100.481048 122.304007 
L 100.806028 138.194771 
L 101.131007 138.194771 
L 101.455987 124.507212 
L 101.780966 122.304007 
L 102.105946 131.350992 
L 102.430925 122.304007 
L 103.405864 138.194771 
L 103.730844 122.304007 
L 104.055823 131.350992 
L 104.380803 124.507212 
L 104.705782 138.194771 
L 105.030762 131.350992 
L 105.355741 138.194771 
L 105.680721 127.347637 
L 106.0057 127.347637 
L 106.33068 138.194771 
L 106.655659 138.194771 
M 107.305618 122.304007 
L 107.630598 127.347637 
L 107.955577 122.304007 
M 108.605536 138.194771 
L 108.930516 138.194771 
L 109.255495 127.347637 
L 109.580475 122.304007 
L 109.905455 127.347637 
L 110.230434 127.347637 
L 110.555414 138.194771 
L 110.880393 127.347637 
L 111.205373 131.350992 
L 111.530352 124.507212 
L 111.855332 127.347637 
L 112.180311 131.350992 
L 112.505291 138.194771 
L 112.83027 138.194771 
L 113.15525 131.350992 
L 113.480229 138.194771 
L 113.805209 131.350992 
M 114.455168 122.304007 
L 114.780147 127.347637 
L 115.105127 127.347637 
L 115.430106 124.507212 
L 115.755086 127.347637 
L 116.080066 138.194771 
L 116.405045 127.347637 
L 116.730025 127.347637 
L 117.055004 124.507212 
L 117.379984 127.347637 
L 117.704963 122.304007 
M 118.354922 127.347637 
L 118.679902 127.347637 
L 119.004881 138.194771 
L 119.329861 124.507212 
L 119.65484 138.194771 
M 120.304799 131.350992 
L 120.629779 124.507212 
L 120.954758 127.347637 
L 121.279738 131.350992 
L 121.604717 127.347637 
L 121.929697 127.347637 
L 122.254676 131.350992 
M 123.229615 127.347637 
L 123.554595 127.347637 
L 123.879574 124.507212 
L 124.204554 127.347637 
L 124.529533 124.507212 
L 124.854513 127.347637 
L 125.179492 131.350992 
L 125.504472 138.194771 
L 125.829451 131.350992 
L 126.154431 138.194771 
L 126.47941 131.350992 
L 127.129369 124.507212 
L 127.454349 127.347637 
L 127.779328 124.507212 
L 128.104308 127.347637 
L 128.429287 138.194771 
L 129.079247 124.507212 
L 129.404226 124.507212 
L 130.054185 138.194771 
L 130.379165 127.347637 
L 130.704144 124.507212 
L 131.029124 131.350992 
L 131.679083 122.304007 
L 132.004062 138.194771 
L 132.329042 122.304007 
L 132.979001 138.194771 
L 133.30398 138.194771 
L 133.62896 127.347637 
L 133.953939 124.507212 
L 134.278919 131.350992 
L 134.603898 131.350992 
L 134.928878 124.507212 
L 135.253857 124.507212 
L 135.578837 127.347637 
M 136.878755 127.347637 
L 137.203735 122.304007 
L 137.528714 122.304007 
L 137.853694 124.507212 
L 138.178673 138.194771 
L 138.503653 127.347637 
L 138.828632 131.350992 
L 139.153612 122.304007 
L 139.803571 131.350992 
L 140.12855 127.347637 
L 140.45353 120.503858 
L 140.778509 131.350992 
L 141.428468 131.350992 
L 141.753448 122.304007 
L 142.403407 131.350992 
L 143.053366 122.304007 
L 143.703325 131.350992 
L 144.028305 127.347637 
L 144.353284 127.347637 
L 144.678264 138.194771 
L 145.328223 138.194771 
M 145.978182 131.350992 
L 146.303161 122.304007 
L 146.628141 138.194771 
L 146.95312 124.507212 
M 147.603079 127.347637 
L 148.253038 122.304007 
L 148.578018 122.304007 
L 148.902998 124.507212 
L 149.227977 138.194771 
L 149.877936 124.507212 
L 150.202916 138.194771 
L 150.527895 127.347637 
L 150.852875 124.507212 
L 151.502834 138.194771 
M 152.152793 138.194771 
L 152.477772 127.347637 
L 152.802752 122.304007 
L 153.127731 131.350992 
L 153.452711 131.350992 
L 153.77769 127.347637 
L 154.10267 127.347637 
M 154.752629 127.347637 
L 155.402588 122.304007 
L 156.052547 122.304007 
L 156.377527 127.347637 
L 156.702506 138.194771 
L 157.352465 124.507212 
L 157.677445 138.194771 
L 158.002424 124.507212 
L 158.652383 138.194771 
L 158.977363 127.347637 
L 159.302342 122.304007 
L 159.627322 124.507212 
L 160.277281 124.507212 
L 160.60226 122.304007 
L 160.92724 127.347637 
L 161.252219 138.194771 
L 161.902179 124.507212 
L 162.227158 138.194771 
L 162.552138 124.507212 
L 162.877117 131.350992 
L 163.202097 131.350992 
L 163.527076 122.304007 
L 163.852056 127.347637 
L 164.177035 138.194771 
M 164.826994 138.194771 
L 165.151974 138.194771 
M 165.801933 138.194771 
L 166.126912 127.347637 
L 166.451892 124.507212 
L 166.776871 138.194771 
L 167.42683 124.507212 
L 167.75181 138.194771 
L 168.07679 124.507212 
L 168.401769 131.350992 
L 168.726749 131.350992 
L 169.051728 122.304007 
L 169.376708 127.347637 
L 169.701687 138.194771 
L 170.026667 138.194771 
L 170.351646 131.350992 
L 170.676626 127.347637 
L 171.001605 127.347637 
L 171.326585 131.350992 
L 171.651564 138.194771 
M 172.301523 131.350992 
L 172.626503 122.304007 
L 172.951482 127.347637 
L 173.276462 138.194771 
L 173.601441 122.304007 
L 173.926421 138.194771 
L 174.2514 124.507212 
L 174.57638 138.194771 
L 174.90136 124.507212 
M 175.551319 127.347637 
L 175.876298 124.507212 
L 176.201278 138.194771 
L 176.526257 138.194771 
L 176.851237 127.347637 
L 177.501196 122.304007 
L 177.826175 124.507212 
L 178.476134 124.507212 
L 178.801114 122.304007 
L 179.451073 127.347637 
L 179.776052 138.194771 
L 180.101032 138.194771 
L 180.426011 124.507212 
L 180.750991 127.347637 
M 181.40095 124.507212 
L 181.72593 131.350992 
L 182.050909 131.350992 
L 182.375889 127.347637 
L 182.700868 131.350992 
L 183.025848 127.347637 
L 183.350827 127.347637 
L 183.675807 138.194771 
L 184.000786 124.507212 
L 184.325766 127.347637 
M 184.975725 127.347637 
L 185.300704 122.304007 
L 185.625684 127.347637 
L 185.950663 138.194771 
M 186.600622 138.194771 
L 186.925602 138.194771 
L 187.250581 131.350992 
L 187.900541 131.350992 
L 188.22552 138.194771 
M 188.875479 138.194771 
L 189.525438 124.507212 
L 189.850418 124.507212 
L 190.500377 138.194771 
L 190.825356 124.507212 
L 191.150336 127.347637 
M 191.800295 124.507212 
L 192.125274 127.347637 
L 192.450254 131.350992 
L 192.775233 124.507212 
L 193.100213 138.194771 
L 193.425192 124.507212 
L 193.750172 138.194771 
L 194.075152 124.507212 
L 194.400131 131.350992 
L 194.725111 131.350992 
L 195.05009 124.507212 
M 195.700049 127.347637 
L 196.025029 127.347637 
L 196.350008 138.194771 
L 196.999967 122.304007 
L 197.324947 127.347637 
L 197.649926 138.194771 
L 197.974906 138.194771 
L 198.624865 124.507212 
L 198.949844 122.304007 
L 199.599803 127.347637 
L 199.924783 127.347637 
L 200.249762 131.350992 
L 200.899722 131.350992 
L 201.224701 127.347637 
L 201.549681 127.347637 
L 202.19964 122.304007 
L 202.849599 127.347637 
L 203.174578 131.350992 
M 203.824537 131.350992 
L 204.474496 124.507212 
L 204.799476 131.350992 
M 205.449435 127.347637 
L 205.774414 124.507212 
L 206.099394 138.194771 
L 206.749353 122.304007 
L 207.074333 138.194771 
L 207.399312 127.347637 
L 207.724292 124.507212 
M 208.374251 122.304007 
L 208.69923 138.194771 
L 209.02421 127.347637 
L 209.349189 131.350992 
L 209.674169 127.347637 
L 209.999148 131.350992 
L 210.324128 127.347637 
L 210.649107 131.350992 
L 210.974087 127.347637 
L 211.299066 138.194771 
L 211.624046 124.507212 
M 212.274005 124.507212 
L 212.923964 138.194771 
L 213.248943 122.304007 
L 213.573923 138.194771 
L 214.223882 122.304007 
L 214.873841 138.194771 
L 215.198821 124.507212 
L 215.5238 127.347637 
L 215.84878 138.194771 
L 216.498739 124.507212 
L 216.823718 124.507212 
L 217.148698 138.194771 
L 217.473677 138.194771 
L 218.123636 124.507212 
L 218.448616 124.507212 
L 218.773595 127.347637 
L 219.098575 138.194771 
M 219.748534 138.194771 
L 220.073514 131.350992 
L 220.723473 124.507212 
L 221.048452 122.304007 
L 221.373432 122.304007 
L 221.698411 124.507212 
L 222.023391 124.507212 
L 222.34837 127.347637 
L 223.973268 127.347637 
L 224.298247 124.507212 
L 224.623227 124.507212 
L 224.948206 122.304007 
L 225.273186 122.304007 
L 225.923145 127.347637 
L 226.248124 127.347637 
L 226.573104 131.350992 
L 226.898084 138.194771 
L 227.223063 138.194771 
L 227.548043 131.350992 
L 228.198002 124.507212 
L 228.522981 124.507212 
L 228.847961 127.347637 
L 229.17294 138.194771 
L 229.49792 138.194771 
L 229.822899 127.347637 
L 230.147879 124.507212 
L 230.472858 124.507212 
L 230.797838 138.194771 
L 231.122817 138.194771 
L 231.447797 127.347637 
L 231.772776 122.304007 
L 232.097756 127.347637 
M 232.747715 131.350992 
L 233.072695 122.304007 
L 233.397674 131.350992 
M 234.047633 127.347637 
L 234.372613 124.507212 
L 234.697592 138.194771 
L 235.347551 122.304007 
L 235.672531 131.350992 
L 235.99751 131.350992 
L 236.32249 122.304007 
L 236.647469 131.350992 
L 236.972449 131.350992 
L 237.297428 122.304007 
L 237.622408 138.194771 
L 238.272367 124.507212 
M 238.922326 127.347637 
L 239.247305 127.347637 
L 239.572285 138.194771 
L 239.897265 122.304007 
L 240.222244 138.194771 
L 240.547224 127.347637 
L 240.872203 131.350992 
L 241.197183 131.350992 
L 241.522162 124.507212 
M 242.172121 122.304007 
L 242.497101 138.194771 
L 242.82208 124.507212 
L 243.14706 131.350992 
L 243.472039 127.347637 
L 243.797019 131.350992 
L 244.121998 131.350992 
L 244.446978 127.347637 
L 244.771957 131.350992 
L 245.096937 127.347637 
L 245.421916 131.350992 
L 245.746896 127.347637 
L 246.071876 131.350992 
L 246.396855 127.347637 
L 246.721835 131.350992 
L 247.046814 127.347637 
L 247.371794 131.350992 
L 247.696773 131.350992 
L 248.021753 127.347637 
L 248.346732 131.350992 
L 248.671712 124.507212 
L 248.996691 138.194771 
L 249.321671 122.304007 
M 249.97163 124.507212 
L 250.296609 138.194771 
L 250.621589 127.347637 
L 250.946568 127.347637 
L 251.271548 138.194771 
L 251.596527 124.507212 
M 252.246486 124.507212 
L 252.571466 131.350992 
L 252.896446 131.350992 
L 253.221425 124.507212 
M 253.871384 124.507212 
L 254.521343 138.194771 
L 254.846323 122.304007 
L 255.171302 138.194771 
L 255.496282 127.347637 
L 255.821261 124.507212 
M 256.47122 124.507212 
L 256.7962 127.347637 
L 257.121179 138.194771 
L 257.446159 124.507212 
L 258.096118 138.194771 
L 258.421097 122.304007 
L 259.071057 138.194771 
L 259.396036 122.304007 
L 260.045995 138.194771 
L 260.370975 124.507212 
L 261.020934 138.194771 
L 261.345913 124.507212 
L 261.670893 127.347637 
M 262.320852 127.347637 
L 262.645831 124.507212 
L 262.970811 138.194771 
L 263.62077 122.304007 
L 263.945749 131.350992 
M 264.595708 127.347637 
L 264.920688 124.507212 
L 265.245667 138.194771 
L 265.570647 138.194771 
L 265.895627 124.507212 
L 266.220606 127.347637 
L 266.545586 138.194771 
L 267.195545 122.304007 
L 267.520524 127.347637 
M 268.170483 131.350992 
L 268.495463 122.304007 
L 268.820442 127.347637 
M 269.470401 131.350992 
L 269.795381 122.304007 
L 270.12036 127.347637 
L 270.44534 138.194771 
L 271.095299 124.507212 
L 271.420278 124.507212 
L 272.070238 138.194771 
L 272.395217 127.347637 
L 272.720197 122.304007 
L 273.045176 127.347637 
L 273.370156 138.194771 
L 274.020115 124.507212 
L 274.345094 124.507212 
L 274.670074 131.350992 
M 275.320033 131.350992 
L 275.645012 124.507212 
L 275.969992 124.507212 
L 276.294971 131.350992 
M 276.94493 131.350992 
L 277.26991 124.507212 
L 277.594889 124.507212 
L 277.919869 127.347637 
L 278.244848 138.194771 
L 278.569828 138.194771 
L 278.894808 127.347637 
L 279.219787 122.304007 
L 279.544767 124.507212 
L 279.869746 131.350992 
M 280.519705 131.350992 
L 281.169664 122.304007 
L 281.819623 131.350992 
M 282.469582 131.350992 
L 283.119541 122.304007 
L 283.444521 124.507212 
L 283.7695 131.350992 
M 284.419459 138.194771 
L 284.744439 127.347637 
L 285.069419 124.507212 
L 285.394398 124.507212 
L 285.719378 127.347637 
L 286.044357 138.194771 
M 286.694316 138.194771 
L 287.019296 127.347637 
L 287.344275 124.507212 
L 287.669255 124.507212 
L 287.994234 127.347637 
L 288.319214 131.350992 
M 288.969173 138.194771 
L 289.619132 124.507212 
L 289.944111 122.304007 
L 290.59407 127.347637 
L 290.91905 138.194771 
M 291.569009 138.194771 
L 292.218968 124.507212 
L 292.543948 122.304007 
L 293.193907 127.347637 
L 293.518886 131.350992 
L 293.843866 138.194771 
L 294.168845 138.194771 
L 294.493825 131.350992 
L 295.143784 124.507212 
L 295.468763 122.304007 
L 296.118722 127.347637 
L 296.443702 131.350992 
L 296.768681 138.194771 
M 297.41864 138.194771 
L 297.74362 131.350992 
L 298.393579 124.507212 
L 298.718559 122.304007 
L 299.368518 127.347637 
L 299.693497 131.350992 
L 300.018477 138.194771 
M 300.668436 138.194771 
L 300.993415 131.350992 
L 301.643374 124.507212 
L 301.968354 122.304007 
L 302.293333 124.507212 
L 302.618313 124.507212 
L 302.943292 127.347637 
L 303.268272 131.350992 
L 303.593251 138.194771 
M 304.24321 138.194771 
L 304.56819 131.350992 
L 304.89317 131.350992 
L 305.543129 124.507212 
L 305.868108 122.304007 
L 306.193088 124.507212 
L 306.518067 124.507212 
L 306.843047 127.347637 
L 307.168026 131.350992 
L 307.493006 138.194771 
L 307.817985 138.194771 
M 308.467944 138.194771 
L 308.792924 131.350992 
L 309.117903 131.350992 
L 309.767862 124.507212 
L 310.092842 124.507212 
L 310.417821 122.304007 
L 310.742801 124.507212 
L 311.067781 124.507212 
L 311.39276 127.347637 
L 311.71774 131.350992 
L 312.042719 131.350992 
L 312.367699 138.194771 
M 313.342637 138.194771 
L 313.667617 131.350992 
L 313.992596 131.350992 
L 314.317576 127.347637 
L 314.642555 127.347637 
L 315.292514 122.304007 
L 315.617494 122.304007 
L 315.942473 124.507212 
L 316.267453 124.507212 
L 316.592432 127.347637 
L 316.917412 131.350992 
L 317.242391 131.350992 
L 317.567371 138.194771 
L 317.892351 138.194771 
M 318.867289 138.194771 
L 319.192269 138.194771 
L 319.517248 131.350992 
L 319.842228 131.350992 
L 320.167207 127.347637 
L 320.492187 127.347637 
L 320.817166 124.507212 
L 321.142146 124.507212 
L 321.467125 122.304007 
L 321.792105 122.304007 
L 322.117084 124.507212 
L 322.442064 124.507212 
L 322.767043 127.347637 
L 323.092023 127.347637 
L 323.417002 131.350992 
L 323.741982 131.350992 
L 324.066962 138.194771 
L 324.391941 138.194771 
M 325.691859 138.194771 
L 326.016839 138.194771 
L 326.341818 131.350992 
L 326.666798 131.350992 
L 326.991777 127.347637 
L 327.641736 127.347637 
L 327.966716 124.507212 
L 328.291695 124.507212 
L 328.616675 122.304007 
L 329.266634 122.304007 
L 329.591613 124.507212 
L 329.916593 124.507212 
L 330.241572 127.347637 
L 330.891532 127.347637 
L 331.216511 131.350992 
L 331.86647 131.350992 
L 332.19145 138.194771 
L 332.841409 138.194771 
M 334.141327 138.194771 
L 334.791286 138.194771 
L 335.116265 131.350992 
L 335.766224 131.350992 
L 336.091204 127.347637 
L 336.741163 127.347637 
L 337.066143 124.507212 
L 337.716102 124.507212 
L 338.041081 122.304007 
L 339.01602 122.304007 
L 339.340999 124.507212 
L 339.990958 124.507212 
L 340.315938 127.347637 
L 341.290876 127.347637 
L 341.615856 131.350992 
L 342.590794 131.350992 
L 342.915774 138.194771 
L 343.890713 138.194771 
M 345.51561 138.194771 
L 346.490549 138.194771 
L 346.815528 131.350992 
L 348.115446 131.350992 
L 348.440426 127.347637 
L 349.415364 127.347637 
L 349.740344 124.507212 
L 351.040262 124.507212 
L 351.365242 122.304007 
L 352.990139 122.304007 
L 353.315119 124.507212 
L 354.615037 124.507212 
L 354.940016 127.347637 
L 356.564914 127.347637 
L 356.889894 131.350992 
L 358.514791 131.350992 
L 358.839771 138.194771 
L 360.464668 138.194771 
M 363.064505 138.194771 
L 365.339361 138.194771 
L 365.664341 131.350992 
L 365.98932 132.95562 
L 366.3143 131.857435 
L 367.289238 130.409948 
L 367.614218 129.550842 
L 368.914136 128.028837 
L 369.239115 127.347637 
L 371.188993 125.547488 
L 371.838952 125.013656 
L 372.163931 124.507212 
L 374.438788 122.914933 
L 375.413726 122.304007 
L 376.713645 123.127274 
L 377.038624 123.127274 
L 379.313481 124.757187 
L 379.63846 125.013656 
L 379.96344 125.013656 
L 381.588337 126.406593 
L 381.913317 126.406593 
L 383.213235 127.682364 
L 383.538215 127.682364 
L 384.513153 128.760541 
L 384.838133 128.760541 
L 385.488092 129.550842 
L 385.813071 129.550842 
L 386.78801 130.869263 
L 387.112989 130.869263 
L 387.762948 131.857435 
L 388.087928 131.857435 
L 388.737887 132.95562 
L 389.062867 132.95562 
L 389.712826 134.191417 
L 390.037805 134.191417 
L 390.687764 135.604321 
L 391.012744 135.604321 
L 391.337723 136.394622 
L 391.662703 136.394622 
L 392.312662 138.194771 
L 392.637641 138.194771 
L 392.962621 139.235047 
L 393.2876 139.235047 
L 393.61258 140.397976 
L 393.937559 140.397976 
L 394.587518 143.238401 
L 394.912498 143.238401 
L 395.562457 145.441606 
L 396.862375 151.122456 
L 397.512334 156.28874 
L 397.837314 159.988271 
L 398.162293 166.479388 
L 398.487273 295.488 
L 398.487273 295.488 
" style="fill:none;stroke:#2ca02c;stroke-linecap:square;stroke-width:1.5;"/>
   </g>
   <g id="patch_3">
    <path d="M 57.6 307.584 
L 57.6 41.472 
" style="fill:none;stroke:#000000;stroke-linecap:square;stroke-linejoin:miter;stroke-width:0.8;"/>
   </g>
   <g id="patch_4">
    <path d="M 414.72 307.584 
L 414.72 41.472 
" style="fill:none;stroke:#000000;stroke-linecap:square;stroke-linejoin:miter;stroke-width:0.8;"/>
   </g>
   <g id="patch_5">
    <path d="M 57.6 307.584 
L 414.72 307.584 
" style="fill:none;stroke:#000000;stroke-linecap:square;stroke-linejoin:miter;stroke-width:0.8;"/>
   </g>
   <g id="patch_6">
    <path d="M 57.6 41.472 
L 414.72 41.472 
" style="fill:none;stroke:#000000;stroke-linecap:square;stroke-linejoin:miter;stroke-width:0.8;"/>
   </g>
   <g id="legend_1">
    <g id="patch_7">
     <path d="M 64.6 302.584 
L 136.767188 302.584 
Q 138.767188 302.584 138.767188 300.584 
L 138.767188 257.549625 
Q 138.767188 255.549625 136.767188 255.549625 
L 64.6 255.549625 
Q 62.6 255.549625 62.6 257.549625 
L 62.6 300.584 
Q 62.6 302.584 64.6 302.584 
z
" style="fill:#ffffff;opacity:0.8;stroke:#cccccc;stroke-linejoin:miter;"/>
    </g>
    <g id="line2d_16">
     <path d="M 66.6 263.648062 
L 86.6 263.648062 
" style="fill:none;stroke:#1f77b4;stroke-linecap:square;stroke-width:1.5;"/>
    </g>
    <g id="line2d_17"/>
    <g id="text_15">
     <!-- n=10 -->
     <g transform="translate(94.6 267.148062)scale(0.1 -0.1)">
      <defs>
       <path d="M 54.890625 33.015625 
L 54.890625 0 
L 45.90625 0 
L 45.90625 32.71875 
Q 45.90625 40.484375 42.875 44.328125 
Q 39.84375 48.1875 33.796875 48.1875 
Q 26.515625 48.1875 22.3125 43.546875 
Q 18.109375 38.921875 18.109375 30.90625 
L 18.109375 0 
L 9.078125 0 
L 9.078125 54.6875 
L 18.109375 54.6875 
L 18.109375 46.1875 
Q 21.34375 51.125 25.703125 53.5625 
Q 30.078125 56 35.796875 56 
Q 45.21875 56 50.046875 50.171875 
Q 54.890625 44.34375 54.890625 33.015625 
z
" id="DejaVuSans-110"/>
       <path d="M 10.59375 45.40625 
L 73.1875 45.40625 
L 73.1875 37.203125 
L 10.59375 37.203125 
z
M 10.59375 25.484375 
L 73.1875 25.484375 
L 73.1875 17.1875 
L 10.59375 17.1875 
z
" id="DejaVuSans-61"/>
      </defs>
      <use xlink:href="#DejaVuSans-110"/>
      <use x="63.378906" xlink:href="#DejaVuSans-61"/>
      <use x="147.167969" xlink:href="#DejaVuSans-49"/>
      <use x="210.791016" xlink:href="#DejaVuSans-48"/>
     </g>
    </g>
    <g id="line2d_18">
     <path d="M 66.6 278.326188 
L 86.6 278.326188 
" style="fill:none;stroke:#ff7f0e;stroke-linecap:square;stroke-width:1.5;"/>
    </g>
    <g id="line2d_19"/>
    <g id="text_16">
     <!-- n=100 -->
     <g transform="translate(94.6 281.826188)scale(0.1 -0.1)">
      <use xlink:href="#DejaVuSans-110"/>
      <use x="63.378906" xlink:href="#DejaVuSans-61"/>
      <use x="147.167969" xlink:href="#DejaVuSans-49"/>
      <use x="210.791016" xlink:href="#DejaVuSans-48"/>
      <use x="274.414062" xlink:href="#DejaVuSans-48"/>
     </g>
    </g>
    <g id="line2d_20">
     <path d="M 66.6 293.004312 
L 86.6 293.004312 
" style="fill:none;stroke:#2ca02c;stroke-linecap:square;stroke-width:1.5;"/>
    </g>
    <g id="line2d_21"/>
    <g id="text_17">
     <!-- n=1000 -->
     <g transform="translate(94.6 296.504312)scale(0.1 -0.1)">
      <use xlink:href="#DejaVuSans-110"/>
      <use x="63.378906" xlink:href="#DejaVuSans-61"/>
      <use x="147.167969" xlink:href="#DejaVuSans-49"/>
      <use x="210.791016" xlink:href="#DejaVuSans-48"/>
      <use x="274.414062" xlink:href="#DejaVuSans-48"/>
      <use x="338.037109" xlink:href="#DejaVuSans-48"/>
     </g>
    </g>
   </g>
  </g>
 </g>
 <defs>
  <clipPath id="pb8207046fa">
   <rect height="266.112" width="357.12" x="57.6" y="41.472"/>
  </clipPath>
 </defs>
</svg>
