<?xml version="1.0" encoding="utf-8" standalone="no"?>
<!DOCTYPE svg PUBLIC "-//W3C//DTD SVG 1.1//EN"
  "http://www.w3.org/Graphics/SVG/1.1/DTD/svg11.dtd">
<!-- Created with matplotlib (https://matplotlib.org/) -->
<svg height="345.6pt" version="1.1" viewBox="0 0 460.8 345.6" width="460.8pt" xmlns="http://www.w3.org/2000/svg" xmlns:xlink="http://www.w3.org/1999/xlink">
 <metadata>
  <rdf:RDF xmlns:cc="http://creativecommons.org/ns#" xmlns:dc="http://purl.org/dc/elements/1.1/" xmlns:rdf="http://www.w3.org/1999/02/22-rdf-syntax-ns#">
   <cc:Work>
    <dc:type rdf:resource="http://purl.org/dc/dcmitype/StillImage"/>
    <dc:date>2022-09-12T15:38:38.330954</dc:date>
    <dc:format>image/svg+xml</dc:format>
    <dc:creator>
     <cc:Agent>
      <dc:title>Matplotlib v3.3.4, https://matplotlib.org/</dc:title>
     </cc:Agent>
    </dc:creator>
   </cc:Work>
  </rdf:RDF>
 </metadata>
 <defs>
  <style type="text/css">*{stroke-linecap:butt;stroke-linejoin:round;}</style>
 </defs>
 <g id="figure_1">
  <g id="patch_1">
   <path d="M 0 345.6 
L 460.8 345.6 
L 460.8 0 
L 0 0 
z
" style="fill:#ffffff;"/>
  </g>
  <g id="axes_1">
   <g id="patch_2">
    <path d="M 57.6 307.584 
L 414.72 307.584 
L 414.72 41.472 
L 57.6 41.472 
z
" style="fill:#ffffff;"/>
   </g>
   <g id="matplotlib.axis_1">
    <g id="xtick_1">
     <g id="line2d_1">
      <defs>
       <path d="M 0 0 
L 0 3.5 
" id="mc6be140b38" style="stroke:#000000;stroke-width:0.8;"/>
      </defs>
      <g>
       <use style="stroke:#000000;stroke-width:0.8;" x="73.507748" xlink:href="#mc6be140b38" y="307.584"/>
      </g>
     </g>
     <g id="text_1">
      <!-- 0.0 -->
      <g transform="translate(65.556185 322.182437)scale(0.1 -0.1)">
       <defs>
        <path d="M 31.78125 66.40625 
Q 24.171875 66.40625 20.328125 58.90625 
Q 16.5 51.421875 16.5 36.375 
Q 16.5 21.390625 20.328125 13.890625 
Q 24.171875 6.390625 31.78125 6.390625 
Q 39.453125 6.390625 43.28125 13.890625 
Q 47.125 21.390625 47.125 36.375 
Q 47.125 51.421875 43.28125 58.90625 
Q 39.453125 66.40625 31.78125 66.40625 
z
M 31.78125 74.21875 
Q 44.046875 74.21875 50.515625 64.515625 
Q 56.984375 54.828125 56.984375 36.375 
Q 56.984375 17.96875 50.515625 8.265625 
Q 44.046875 -1.421875 31.78125 -1.421875 
Q 19.53125 -1.421875 13.0625 8.265625 
Q 6.59375 17.96875 6.59375 36.375 
Q 6.59375 54.828125 13.0625 64.515625 
Q 19.53125 74.21875 31.78125 74.21875 
z
" id="DejaVuSans-48"/>
        <path d="M 10.6875 12.40625 
L 21 12.40625 
L 21 0 
L 10.6875 0 
z
" id="DejaVuSans-46"/>
       </defs>
       <use xlink:href="#DejaVuSans-48"/>
       <use x="63.623047" xlink:href="#DejaVuSans-46"/>
       <use x="95.410156" xlink:href="#DejaVuSans-48"/>
      </g>
     </g>
    </g>
    <g id="xtick_2">
     <g id="line2d_2">
      <g>
       <use style="stroke:#000000;stroke-width:0.8;" x="138.503653" xlink:href="#mc6be140b38" y="307.584"/>
      </g>
     </g>
     <g id="text_2">
      <!-- 0.2 -->
      <g transform="translate(130.55209 322.182437)scale(0.1 -0.1)">
       <defs>
        <path d="M 19.1875 8.296875 
L 53.609375 8.296875 
L 53.609375 0 
L 7.328125 0 
L 7.328125 8.296875 
Q 12.9375 14.109375 22.625 23.890625 
Q 32.328125 33.6875 34.8125 36.53125 
Q 39.546875 41.84375 41.421875 45.53125 
Q 43.3125 49.21875 43.3125 52.78125 
Q 43.3125 58.59375 39.234375 62.25 
Q 35.15625 65.921875 28.609375 65.921875 
Q 23.96875 65.921875 18.8125 64.3125 
Q 13.671875 62.703125 7.8125 59.421875 
L 7.8125 69.390625 
Q 13.765625 71.78125 18.9375 73 
Q 24.125 74.21875 28.421875 74.21875 
Q 39.75 74.21875 46.484375 68.546875 
Q 53.21875 62.890625 53.21875 53.421875 
Q 53.21875 48.921875 51.53125 44.890625 
Q 49.859375 40.875 45.40625 35.40625 
Q 44.1875 33.984375 37.640625 27.21875 
Q 31.109375 20.453125 19.1875 8.296875 
z
" id="DejaVuSans-50"/>
       </defs>
       <use xlink:href="#DejaVuSans-48"/>
       <use x="63.623047" xlink:href="#DejaVuSans-46"/>
       <use x="95.410156" xlink:href="#DejaVuSans-50"/>
      </g>
     </g>
    </g>
    <g id="xtick_3">
     <g id="line2d_3">
      <g>
       <use style="stroke:#000000;stroke-width:0.8;" x="203.499558" xlink:href="#mc6be140b38" y="307.584"/>
      </g>
     </g>
     <g id="text_3">
      <!-- 0.4 -->
      <g transform="translate(195.547995 322.182437)scale(0.1 -0.1)">
       <defs>
        <path d="M 37.796875 64.3125 
L 12.890625 25.390625 
L 37.796875 25.390625 
z
M 35.203125 72.90625 
L 47.609375 72.90625 
L 47.609375 25.390625 
L 58.015625 25.390625 
L 58.015625 17.1875 
L 47.609375 17.1875 
L 47.609375 0 
L 37.796875 0 
L 37.796875 17.1875 
L 4.890625 17.1875 
L 4.890625 26.703125 
z
" id="DejaVuSans-52"/>
       </defs>
       <use xlink:href="#DejaVuSans-48"/>
       <use x="63.623047" xlink:href="#DejaVuSans-46"/>
       <use x="95.410156" xlink:href="#DejaVuSans-52"/>
      </g>
     </g>
    </g>
    <g id="xtick_4">
     <g id="line2d_4">
      <g>
       <use style="stroke:#000000;stroke-width:0.8;" x="268.495463" xlink:href="#mc6be140b38" y="307.584"/>
      </g>
     </g>
     <g id="text_4">
      <!-- 0.6 -->
      <g transform="translate(260.5439 322.182437)scale(0.1 -0.1)">
       <defs>
        <path d="M 33.015625 40.375 
Q 26.375 40.375 22.484375 35.828125 
Q 18.609375 31.296875 18.609375 23.390625 
Q 18.609375 15.53125 22.484375 10.953125 
Q 26.375 6.390625 33.015625 6.390625 
Q 39.65625 6.390625 43.53125 10.953125 
Q 47.40625 15.53125 47.40625 23.390625 
Q 47.40625 31.296875 43.53125 35.828125 
Q 39.65625 40.375 33.015625 40.375 
z
M 52.59375 71.296875 
L 52.59375 62.3125 
Q 48.875 64.0625 45.09375 64.984375 
Q 41.3125 65.921875 37.59375 65.921875 
Q 27.828125 65.921875 22.671875 59.328125 
Q 17.53125 52.734375 16.796875 39.40625 
Q 19.671875 43.65625 24.015625 45.921875 
Q 28.375 48.1875 33.59375 48.1875 
Q 44.578125 48.1875 50.953125 41.515625 
Q 57.328125 34.859375 57.328125 23.390625 
Q 57.328125 12.15625 50.6875 5.359375 
Q 44.046875 -1.421875 33.015625 -1.421875 
Q 20.359375 -1.421875 13.671875 8.265625 
Q 6.984375 17.96875 6.984375 36.375 
Q 6.984375 53.65625 15.1875 63.9375 
Q 23.390625 74.21875 37.203125 74.21875 
Q 40.921875 74.21875 44.703125 73.484375 
Q 48.484375 72.75 52.59375 71.296875 
z
" id="DejaVuSans-54"/>
       </defs>
       <use xlink:href="#DejaVuSans-48"/>
       <use x="63.623047" xlink:href="#DejaVuSans-46"/>
       <use x="95.410156" xlink:href="#DejaVuSans-54"/>
      </g>
     </g>
    </g>
    <g id="xtick_5">
     <g id="line2d_5">
      <g>
       <use style="stroke:#000000;stroke-width:0.8;" x="333.491368" xlink:href="#mc6be140b38" y="307.584"/>
      </g>
     </g>
     <g id="text_5">
      <!-- 0.8 -->
      <g transform="translate(325.539805 322.182437)scale(0.1 -0.1)">
       <defs>
        <path d="M 31.78125 34.625 
Q 24.75 34.625 20.71875 30.859375 
Q 16.703125 27.09375 16.703125 20.515625 
Q 16.703125 13.921875 20.71875 10.15625 
Q 24.75 6.390625 31.78125 6.390625 
Q 38.8125 6.390625 42.859375 10.171875 
Q 46.921875 13.96875 46.921875 20.515625 
Q 46.921875 27.09375 42.890625 30.859375 
Q 38.875 34.625 31.78125 34.625 
z
M 21.921875 38.8125 
Q 15.578125 40.375 12.03125 44.71875 
Q 8.5 49.078125 8.5 55.328125 
Q 8.5 64.0625 14.71875 69.140625 
Q 20.953125 74.21875 31.78125 74.21875 
Q 42.671875 74.21875 48.875 69.140625 
Q 55.078125 64.0625 55.078125 55.328125 
Q 55.078125 49.078125 51.53125 44.71875 
Q 48 40.375 41.703125 38.8125 
Q 48.828125 37.15625 52.796875 32.3125 
Q 56.78125 27.484375 56.78125 20.515625 
Q 56.78125 9.90625 50.3125 4.234375 
Q 43.84375 -1.421875 31.78125 -1.421875 
Q 19.734375 -1.421875 13.25 4.234375 
Q 6.78125 9.90625 6.78125 20.515625 
Q 6.78125 27.484375 10.78125 32.3125 
Q 14.796875 37.15625 21.921875 38.8125 
z
M 18.3125 54.390625 
Q 18.3125 48.734375 21.84375 45.5625 
Q 25.390625 42.390625 31.78125 42.390625 
Q 38.140625 42.390625 41.71875 45.5625 
Q 45.3125 48.734375 45.3125 54.390625 
Q 45.3125 60.0625 41.71875 63.234375 
Q 38.140625 66.40625 31.78125 66.40625 
Q 25.390625 66.40625 21.84375 63.234375 
Q 18.3125 60.0625 18.3125 54.390625 
z
" id="DejaVuSans-56"/>
       </defs>
       <use xlink:href="#DejaVuSans-48"/>
       <use x="63.623047" xlink:href="#DejaVuSans-46"/>
       <use x="95.410156" xlink:href="#DejaVuSans-56"/>
      </g>
     </g>
    </g>
    <g id="xtick_6">
     <g id="line2d_6">
      <g>
       <use style="stroke:#000000;stroke-width:0.8;" x="398.487273" xlink:href="#mc6be140b38" y="307.584"/>
      </g>
     </g>
     <g id="text_6">
      <!-- 1.0 -->
      <g transform="translate(390.53571 322.182437)scale(0.1 -0.1)">
       <defs>
        <path d="M 12.40625 8.296875 
L 28.515625 8.296875 
L 28.515625 63.921875 
L 10.984375 60.40625 
L 10.984375 69.390625 
L 28.421875 72.90625 
L 38.28125 72.90625 
L 38.28125 8.296875 
L 54.390625 8.296875 
L 54.390625 0 
L 12.40625 0 
z
" id="DejaVuSans-49"/>
       </defs>
       <use xlink:href="#DejaVuSans-49"/>
       <use x="63.623047" xlink:href="#DejaVuSans-46"/>
       <use x="95.410156" xlink:href="#DejaVuSans-48"/>
      </g>
     </g>
    </g>
    <g id="text_7">
     <!-- x -->
     <g transform="translate(233.200625 335.860562)scale(0.1 -0.1)">
      <defs>
       <path d="M 54.890625 54.6875 
L 35.109375 28.078125 
L 55.90625 0 
L 45.3125 0 
L 29.390625 21.484375 
L 13.484375 0 
L 2.875 0 
L 24.125 28.609375 
L 4.6875 54.6875 
L 15.28125 54.6875 
L 29.78125 35.203125 
L 44.28125 54.6875 
z
" id="DejaVuSans-120"/>
      </defs>
      <use xlink:href="#DejaVuSans-120"/>
     </g>
    </g>
   </g>
   <g id="matplotlib.axis_2">
    <g id="ytick_1">
     <g id="line2d_7">
      <defs>
       <path d="M 0 0 
L -3.5 0 
" id="mfa2c6a4199" style="stroke:#000000;stroke-width:0.8;"/>
      </defs>
      <g>
       <use style="stroke:#000000;stroke-width:0.8;" x="57.6" xlink:href="#mfa2c6a4199" y="304.216234"/>
      </g>
     </g>
     <g id="text_8">
      <!-- −5 -->
      <g transform="translate(35.857813 308.015453)scale(0.1 -0.1)">
       <defs>
        <path d="M 10.59375 35.5 
L 73.1875 35.5 
L 73.1875 27.203125 
L 10.59375 27.203125 
z
" id="DejaVuSans-8722"/>
        <path d="M 10.796875 72.90625 
L 49.515625 72.90625 
L 49.515625 64.59375 
L 19.828125 64.59375 
L 19.828125 46.734375 
Q 21.96875 47.46875 24.109375 47.828125 
Q 26.265625 48.1875 28.421875 48.1875 
Q 40.625 48.1875 47.75 41.5 
Q 54.890625 34.8125 54.890625 23.390625 
Q 54.890625 11.625 47.5625 5.09375 
Q 40.234375 -1.421875 26.90625 -1.421875 
Q 22.3125 -1.421875 17.546875 -0.640625 
Q 12.796875 0.140625 7.71875 1.703125 
L 7.71875 11.625 
Q 12.109375 9.234375 16.796875 8.0625 
Q 21.484375 6.890625 26.703125 6.890625 
Q 35.15625 6.890625 40.078125 11.328125 
Q 45.015625 15.765625 45.015625 23.390625 
Q 45.015625 31 40.078125 35.4375 
Q 35.15625 39.890625 26.703125 39.890625 
Q 22.75 39.890625 18.8125 39.015625 
Q 14.890625 38.140625 10.796875 36.28125 
z
" id="DejaVuSans-53"/>
       </defs>
       <use xlink:href="#DejaVuSans-8722"/>
       <use x="83.789062" xlink:href="#DejaVuSans-53"/>
      </g>
     </g>
    </g>
    <g id="ytick_2">
     <g id="line2d_8">
      <g>
       <use style="stroke:#000000;stroke-width:0.8;" x="57.6" xlink:href="#mfa2c6a4199" y="254.086587"/>
      </g>
     </g>
     <g id="text_9">
      <!-- −4 -->
      <g transform="translate(35.857813 257.885806)scale(0.1 -0.1)">
       <use xlink:href="#DejaVuSans-8722"/>
       <use x="83.789062" xlink:href="#DejaVuSans-52"/>
      </g>
     </g>
    </g>
    <g id="ytick_3">
     <g id="line2d_9">
      <g>
       <use style="stroke:#000000;stroke-width:0.8;" x="57.6" xlink:href="#mfa2c6a4199" y="203.95694"/>
      </g>
     </g>
     <g id="text_10">
      <!-- −3 -->
      <g transform="translate(35.857813 207.756159)scale(0.1 -0.1)">
       <defs>
        <path d="M 40.578125 39.3125 
Q 47.65625 37.796875 51.625 33 
Q 55.609375 28.21875 55.609375 21.1875 
Q 55.609375 10.40625 48.1875 4.484375 
Q 40.765625 -1.421875 27.09375 -1.421875 
Q 22.515625 -1.421875 17.65625 -0.515625 
Q 12.796875 0.390625 7.625 2.203125 
L 7.625 11.71875 
Q 11.71875 9.328125 16.59375 8.109375 
Q 21.484375 6.890625 26.8125 6.890625 
Q 36.078125 6.890625 40.9375 10.546875 
Q 45.796875 14.203125 45.796875 21.1875 
Q 45.796875 27.640625 41.28125 31.265625 
Q 36.765625 34.90625 28.71875 34.90625 
L 20.21875 34.90625 
L 20.21875 43.015625 
L 29.109375 43.015625 
Q 36.375 43.015625 40.234375 45.921875 
Q 44.09375 48.828125 44.09375 54.296875 
Q 44.09375 59.90625 40.109375 62.90625 
Q 36.140625 65.921875 28.71875 65.921875 
Q 24.65625 65.921875 20.015625 65.03125 
Q 15.375 64.15625 9.8125 62.3125 
L 9.8125 71.09375 
Q 15.4375 72.65625 20.34375 73.4375 
Q 25.25 74.21875 29.59375 74.21875 
Q 40.828125 74.21875 47.359375 69.109375 
Q 53.90625 64.015625 53.90625 55.328125 
Q 53.90625 49.265625 50.4375 45.09375 
Q 46.96875 40.921875 40.578125 39.3125 
z
" id="DejaVuSans-51"/>
       </defs>
       <use xlink:href="#DejaVuSans-8722"/>
       <use x="83.789062" xlink:href="#DejaVuSans-51"/>
      </g>
     </g>
    </g>
    <g id="ytick_4">
     <g id="line2d_10">
      <g>
       <use style="stroke:#000000;stroke-width:0.8;" x="57.6" xlink:href="#mfa2c6a4199" y="153.827294"/>
      </g>
     </g>
     <g id="text_11">
      <!-- −2 -->
      <g transform="translate(35.857813 157.626512)scale(0.1 -0.1)">
       <use xlink:href="#DejaVuSans-8722"/>
       <use x="83.789062" xlink:href="#DejaVuSans-50"/>
      </g>
     </g>
    </g>
    <g id="ytick_5">
     <g id="line2d_11">
      <g>
       <use style="stroke:#000000;stroke-width:0.8;" x="57.6" xlink:href="#mfa2c6a4199" y="103.697647"/>
      </g>
     </g>
     <g id="text_12">
      <!-- −1 -->
      <g transform="translate(35.857813 107.496866)scale(0.1 -0.1)">
       <use xlink:href="#DejaVuSans-8722"/>
       <use x="83.789062" xlink:href="#DejaVuSans-49"/>
      </g>
     </g>
    </g>
    <g id="ytick_6">
     <g id="line2d_12">
      <g>
       <use style="stroke:#000000;stroke-width:0.8;" x="57.6" xlink:href="#mfa2c6a4199" y="53.568"/>
      </g>
     </g>
     <g id="text_13">
      <!-- 0 -->
      <g transform="translate(44.2375 57.367219)scale(0.1 -0.1)">
       <use xlink:href="#DejaVuSans-48"/>
      </g>
     </g>
    </g>
    <g id="text_14">
     <!-- log(abs(v-u)/u)) -->
     <g transform="translate(29.778125 213.401437)rotate(-90)scale(0.1 -0.1)">
      <defs>
       <path d="M 9.421875 75.984375 
L 18.40625 75.984375 
L 18.40625 0 
L 9.421875 0 
z
" id="DejaVuSans-108"/>
       <path d="M 30.609375 48.390625 
Q 23.390625 48.390625 19.1875 42.75 
Q 14.984375 37.109375 14.984375 27.296875 
Q 14.984375 17.484375 19.15625 11.84375 
Q 23.34375 6.203125 30.609375 6.203125 
Q 37.796875 6.203125 41.984375 11.859375 
Q 46.1875 17.53125 46.1875 27.296875 
Q 46.1875 37.015625 41.984375 42.703125 
Q 37.796875 48.390625 30.609375 48.390625 
z
M 30.609375 56 
Q 42.328125 56 49.015625 48.375 
Q 55.71875 40.765625 55.71875 27.296875 
Q 55.71875 13.875 49.015625 6.21875 
Q 42.328125 -1.421875 30.609375 -1.421875 
Q 18.84375 -1.421875 12.171875 6.21875 
Q 5.515625 13.875 5.515625 27.296875 
Q 5.515625 40.765625 12.171875 48.375 
Q 18.84375 56 30.609375 56 
z
" id="DejaVuSans-111"/>
       <path d="M 45.40625 27.984375 
Q 45.40625 37.75 41.375 43.109375 
Q 37.359375 48.484375 30.078125 48.484375 
Q 22.859375 48.484375 18.828125 43.109375 
Q 14.796875 37.75 14.796875 27.984375 
Q 14.796875 18.265625 18.828125 12.890625 
Q 22.859375 7.515625 30.078125 7.515625 
Q 37.359375 7.515625 41.375 12.890625 
Q 45.40625 18.265625 45.40625 27.984375 
z
M 54.390625 6.78125 
Q 54.390625 -7.171875 48.1875 -13.984375 
Q 42 -20.796875 29.203125 -20.796875 
Q 24.46875 -20.796875 20.265625 -20.09375 
Q 16.0625 -19.390625 12.109375 -17.921875 
L 12.109375 -9.1875 
Q 16.0625 -11.328125 19.921875 -12.34375 
Q 23.78125 -13.375 27.78125 -13.375 
Q 36.625 -13.375 41.015625 -8.765625 
Q 45.40625 -4.15625 45.40625 5.171875 
L 45.40625 9.625 
Q 42.625 4.78125 38.28125 2.390625 
Q 33.9375 0 27.875 0 
Q 17.828125 0 11.671875 7.65625 
Q 5.515625 15.328125 5.515625 27.984375 
Q 5.515625 40.671875 11.671875 48.328125 
Q 17.828125 56 27.875 56 
Q 33.9375 56 38.28125 53.609375 
Q 42.625 51.21875 45.40625 46.390625 
L 45.40625 54.6875 
L 54.390625 54.6875 
z
" id="DejaVuSans-103"/>
       <path d="M 31 75.875 
Q 24.46875 64.65625 21.28125 53.65625 
Q 18.109375 42.671875 18.109375 31.390625 
Q 18.109375 20.125 21.3125 9.0625 
Q 24.515625 -2 31 -13.1875 
L 23.1875 -13.1875 
Q 15.875 -1.703125 12.234375 9.375 
Q 8.59375 20.453125 8.59375 31.390625 
Q 8.59375 42.28125 12.203125 53.3125 
Q 15.828125 64.359375 23.1875 75.875 
z
" id="DejaVuSans-40"/>
       <path d="M 34.28125 27.484375 
Q 23.390625 27.484375 19.1875 25 
Q 14.984375 22.515625 14.984375 16.5 
Q 14.984375 11.71875 18.140625 8.90625 
Q 21.296875 6.109375 26.703125 6.109375 
Q 34.1875 6.109375 38.703125 11.40625 
Q 43.21875 16.703125 43.21875 25.484375 
L 43.21875 27.484375 
z
M 52.203125 31.203125 
L 52.203125 0 
L 43.21875 0 
L 43.21875 8.296875 
Q 40.140625 3.328125 35.546875 0.953125 
Q 30.953125 -1.421875 24.3125 -1.421875 
Q 15.921875 -1.421875 10.953125 3.296875 
Q 6 8.015625 6 15.921875 
Q 6 25.140625 12.171875 29.828125 
Q 18.359375 34.515625 30.609375 34.515625 
L 43.21875 34.515625 
L 43.21875 35.40625 
Q 43.21875 41.609375 39.140625 45 
Q 35.0625 48.390625 27.6875 48.390625 
Q 23 48.390625 18.546875 47.265625 
Q 14.109375 46.140625 10.015625 43.890625 
L 10.015625 52.203125 
Q 14.9375 54.109375 19.578125 55.046875 
Q 24.21875 56 28.609375 56 
Q 40.484375 56 46.34375 49.84375 
Q 52.203125 43.703125 52.203125 31.203125 
z
" id="DejaVuSans-97"/>
       <path d="M 48.6875 27.296875 
Q 48.6875 37.203125 44.609375 42.84375 
Q 40.53125 48.484375 33.40625 48.484375 
Q 26.265625 48.484375 22.1875 42.84375 
Q 18.109375 37.203125 18.109375 27.296875 
Q 18.109375 17.390625 22.1875 11.75 
Q 26.265625 6.109375 33.40625 6.109375 
Q 40.53125 6.109375 44.609375 11.75 
Q 48.6875 17.390625 48.6875 27.296875 
z
M 18.109375 46.390625 
Q 20.953125 51.265625 25.265625 53.625 
Q 29.59375 56 35.59375 56 
Q 45.5625 56 51.78125 48.09375 
Q 58.015625 40.1875 58.015625 27.296875 
Q 58.015625 14.40625 51.78125 6.484375 
Q 45.5625 -1.421875 35.59375 -1.421875 
Q 29.59375 -1.421875 25.265625 0.953125 
Q 20.953125 3.328125 18.109375 8.203125 
L 18.109375 0 
L 9.078125 0 
L 9.078125 75.984375 
L 18.109375 75.984375 
z
" id="DejaVuSans-98"/>
       <path d="M 44.28125 53.078125 
L 44.28125 44.578125 
Q 40.484375 46.53125 36.375 47.5 
Q 32.28125 48.484375 27.875 48.484375 
Q 21.1875 48.484375 17.84375 46.4375 
Q 14.5 44.390625 14.5 40.28125 
Q 14.5 37.15625 16.890625 35.375 
Q 19.28125 33.59375 26.515625 31.984375 
L 29.59375 31.296875 
Q 39.15625 29.25 43.1875 25.515625 
Q 47.21875 21.78125 47.21875 15.09375 
Q 47.21875 7.46875 41.1875 3.015625 
Q 35.15625 -1.421875 24.609375 -1.421875 
Q 20.21875 -1.421875 15.453125 -0.5625 
Q 10.6875 0.296875 5.421875 2 
L 5.421875 11.28125 
Q 10.40625 8.6875 15.234375 7.390625 
Q 20.0625 6.109375 24.8125 6.109375 
Q 31.15625 6.109375 34.5625 8.28125 
Q 37.984375 10.453125 37.984375 14.40625 
Q 37.984375 18.0625 35.515625 20.015625 
Q 33.0625 21.96875 24.703125 23.78125 
L 21.578125 24.515625 
Q 13.234375 26.265625 9.515625 29.90625 
Q 5.8125 33.546875 5.8125 39.890625 
Q 5.8125 47.609375 11.28125 51.796875 
Q 16.75 56 26.8125 56 
Q 31.78125 56 36.171875 55.265625 
Q 40.578125 54.546875 44.28125 53.078125 
z
" id="DejaVuSans-115"/>
       <path d="M 2.984375 54.6875 
L 12.5 54.6875 
L 29.59375 8.796875 
L 46.6875 54.6875 
L 56.203125 54.6875 
L 35.6875 0 
L 23.484375 0 
z
" id="DejaVuSans-118"/>
       <path d="M 4.890625 31.390625 
L 31.203125 31.390625 
L 31.203125 23.390625 
L 4.890625 23.390625 
z
" id="DejaVuSans-45"/>
       <path d="M 8.5 21.578125 
L 8.5 54.6875 
L 17.484375 54.6875 
L 17.484375 21.921875 
Q 17.484375 14.15625 20.5 10.265625 
Q 23.53125 6.390625 29.59375 6.390625 
Q 36.859375 6.390625 41.078125 11.03125 
Q 45.3125 15.671875 45.3125 23.6875 
L 45.3125 54.6875 
L 54.296875 54.6875 
L 54.296875 0 
L 45.3125 0 
L 45.3125 8.40625 
Q 42.046875 3.421875 37.71875 1 
Q 33.40625 -1.421875 27.6875 -1.421875 
Q 18.265625 -1.421875 13.375 4.4375 
Q 8.5 10.296875 8.5 21.578125 
z
M 31.109375 56 
z
" id="DejaVuSans-117"/>
       <path d="M 8.015625 75.875 
L 15.828125 75.875 
Q 23.140625 64.359375 26.78125 53.3125 
Q 30.421875 42.28125 30.421875 31.390625 
Q 30.421875 20.453125 26.78125 9.375 
Q 23.140625 -1.703125 15.828125 -13.1875 
L 8.015625 -13.1875 
Q 14.5 -2 17.703125 9.0625 
Q 20.90625 20.125 20.90625 31.390625 
Q 20.90625 42.671875 17.703125 53.65625 
Q 14.5 64.65625 8.015625 75.875 
z
" id="DejaVuSans-41"/>
       <path d="M 25.390625 72.90625 
L 33.6875 72.90625 
L 8.296875 -9.28125 
L 0 -9.28125 
z
" id="DejaVuSans-47"/>
      </defs>
      <use xlink:href="#DejaVuSans-108"/>
      <use x="27.783203" xlink:href="#DejaVuSans-111"/>
      <use x="88.964844" xlink:href="#DejaVuSans-103"/>
      <use x="152.441406" xlink:href="#DejaVuSans-40"/>
      <use x="191.455078" xlink:href="#DejaVuSans-97"/>
      <use x="252.734375" xlink:href="#DejaVuSans-98"/>
      <use x="316.210938" xlink:href="#DejaVuSans-115"/>
      <use x="368.310547" xlink:href="#DejaVuSans-40"/>
      <use x="407.324219" xlink:href="#DejaVuSans-118"/>
      <use x="463.878906" xlink:href="#DejaVuSans-45"/>
      <use x="499.962891" xlink:href="#DejaVuSans-117"/>
      <use x="563.341797" xlink:href="#DejaVuSans-41"/>
      <use x="602.355469" xlink:href="#DejaVuSans-47"/>
      <use x="636.046875" xlink:href="#DejaVuSans-117"/>
      <use x="699.425781" xlink:href="#DejaVuSans-41"/>
      <use x="738.439453" xlink:href="#DejaVuSans-41"/>
     </g>
    </g>
   </g>
   <g id="line2d_13">
    <path clip-path="url(#p2510e6c7e6)" d="M 106.0057 108.730496 
L 138.503653 108.721589 
L 171.001605 108.718877 
L 203.499558 108.760648 
L 235.99751 108.767707 
L 268.495463 108.730282 
L 300.993415 108.747245 
L 333.491368 108.796884 
L 365.98932 108.764688 
L 398.487273 53.568 
" style="fill:none;stroke:#1f77b4;stroke-linecap:square;stroke-width:1.5;"/>
   </g>
   <g id="line2d_14">
    <path clip-path="url(#p2510e6c7e6)" d="M 76.757543 210.519433 
L 80.007338 202.809205 
L 83.257133 209.215751 
L 86.506929 204.696878 
L 89.756724 209.196744 
L 93.006519 210.47328 
L 96.256314 210.561971 
L 99.50611 209.19623 
L 102.755905 207.389349 
L 106.0057 208.596404 
L 109.255495 209.595929 
L 112.505291 206.712359 
L 115.755086 209.181364 
L 119.004881 207.976369 
L 122.254676 209.769131 
L 125.504472 208.835827 
L 128.754267 208.725056 
L 132.004062 209.394944 
L 135.253857 208.340257 
L 138.503653 207.302153 
L 141.753448 208.173902 
L 145.003243 205.973786 
L 148.253038 208.245533 
L 151.502834 206.702156 
L 154.752629 208.992718 
L 158.002424 208.514271 
L 161.252219 209.66264 
L 164.502015 209.974864 
L 167.75181 206.231957 
L 171.001605 208.408009 
L 174.2514 207.032131 
L 177.501196 207.23081 
L 180.750991 207.827803 
L 184.000786 207.196536 
L 187.250581 207.77994 
L 190.500377 208.821758 
L 193.750172 208.557209 
L 196.999967 205.76583 
L 200.249762 208.440977 
L 203.499558 207.251915 
L 206.749353 209.234742 
L 209.999148 210.414367 
L 213.248943 208.579577 
L 216.498739 208.725362 
L 219.748534 209.908953 
L 222.998329 206.571373 
L 226.248124 208.133287 
L 229.49792 209.873602 
L 232.747715 210.043763 
L 235.99751 209.637126 
L 239.247305 206.529298 
L 242.497101 207.138244 
L 245.746896 205.661976 
L 248.996691 206.24857 
L 252.246486 209.862088 
L 255.496282 210.037723 
L 258.746077 206.479399 
L 261.995872 211.126222 
L 265.245667 204.90134 
L 268.495463 206.730299 
L 271.745258 211.046645 
L 274.995053 208.98848 
L 278.244848 209.154081 
L 281.494644 210.121277 
L 284.744439 205.146328 
L 287.994234 208.890348 
L 291.244029 205.952629 
L 294.493825 212.040801 
L 297.74362 211.354267 
L 300.993415 210.645377 
L 304.24321 210.924661 
L 307.493006 212.34372 
L 310.742801 204.72692 
L 313.992596 207.545259 
L 317.242391 211.063481 
L 320.492187 204.84083 
L 323.741982 209.253716 
L 326.991777 202.952534 
L 330.241572 208.523118 
L 333.491368 203.924259 
L 336.741163 212.18786 
L 339.990958 206.492151 
L 343.240753 201.508534 
L 346.490549 212.088534 
L 349.740344 205.435751 
L 352.990139 202.431556 
L 356.239934 217.412279 
L 359.48973 210.200109 
L 362.739525 206.01214 
L 365.98932 200.52073 
L 369.239115 227.857921 
L 372.488911 218.493822 
L 375.738706 210.835919 
L 378.988501 203.942422 
L 382.238296 197.248744 
L 385.488092 189.970054 
L 388.737887 216.310197 
L 391.987682 216.96049 
L 395.237477 217.360187 
L 398.487273 53.568 
" style="fill:none;stroke:#ff7f0e;stroke-linecap:square;stroke-width:1.5;"/>
   </g>
   <g id="line2d_15">
    <path clip-path="url(#p2510e6c7e6)" d="M 73.832727 166.590472 
L 74.157707 266.641277 
L 74.482686 192.473932 
L 74.807666 229.286733 
L 75.132645 212.919543 
L 75.457625 212.061271 
L 75.782604 250.949712 
L 76.432563 223.78412 
L 76.757543 222.10634 
L 77.082523 225.902624 
L 77.732482 255.944781 
L 78.057461 227.256575 
L 78.382441 258.82064 
L 78.70742 229.926758 
L 79.0324 231.128002 
L 79.357379 238.516202 
L 79.682359 233.311534 
L 80.007338 240.573255 
L 80.332318 250.345094 
L 80.657297 251.239104 
L 80.982277 243.262103 
L 81.307256 244.070179 
M 81.957215 234.456773 
L 82.282195 255.109368 
L 82.607174 255.784271 
L 82.932154 241.340534 
L 83.257133 257.051591 
L 83.582113 237.699863 
L 83.907093 238.274498 
L 84.232072 258.776805 
L 84.557052 250.482543 
L 84.882031 274.914997 
L 85.207011 251.494826 
L 85.53199 251.975053 
L 85.85697 246.176302 
L 86.181949 246.625621 
L 86.506929 262.151872 
L 86.831908 242.625294 
L 87.156888 247.893009 
L 87.481867 278.470465 
L 87.806847 254.938369 
L 88.131826 255.311987 
L 88.456806 264.503322 
M 89.106765 265.200383 
L 89.431744 265.53493 
L 89.756724 257.032584 
L 90.081704 281.267646 
L 90.406683 266.485396 
M 91.056642 247.130378 
L 91.381622 247.416177 
L 91.706601 282.733888 
L 92.031581 267.91555 
M 92.68154 268.439794 
L 93.006519 283.782776 
L 93.331499 248.990466 
L 93.656478 254.089853 
L 93.981458 284.506354 
L 94.306437 284.736618 
L 94.631417 254.780782 
L 94.956396 250.142499 
L 95.281376 285.39662 
L 95.606355 285.607471 
L 95.931335 261.895339 
L 96.256314 270.92408 
L 96.581294 256.030568 
L 96.906274 251.365285 
L 97.231253 286.593048 
L 97.556233 286.778132 
L 97.881212 256.778195 
L 98.206192 256.955434 
L 98.531171 287.30993 
M 99.18113 257.465609 
L 99.50611 263.891709 
L 99.831089 252.930886 
L 100.156069 264.208554 
L 100.481048 253.240896 
L 100.806028 288.430684 
L 101.131007 288.578531 
L 101.455987 258.542108 
L 101.780966 253.825958 
L 102.105946 273.913795 
L 102.430925 254.101822 
L 103.405864 289.535048 
L 103.730844 254.622047 
L 104.055823 274.694763 
L 104.380803 259.725556 
L 104.705782 290.026005 
L 105.030762 275.052559 
L 105.355741 290.257888 
L 105.680721 266.452934 
L 106.0057 266.56368 
L 106.33068 290.590158 
L 106.655659 290.696556 
M 107.305618 255.864674 
L 107.630598 267.08676 
L 107.955577 256.064391 
M 108.605536 291.295896 
L 108.930516 291.389492 
L 109.255495 267.563205 
L 109.580475 256.532477 
L 109.905455 267.742222 
L 110.230434 267.828865 
L 110.555414 291.832316 
L 110.880393 267.99806 
L 111.205373 276.907652 
L 111.530352 261.897873 
L 111.855332 268.240323 
L 112.180311 277.145232 
L 112.505291 292.312249 
L 112.83027 292.387346 
L 113.15525 277.370537 
L 113.480229 292.533045 
L 113.805209 277.513518 
M 114.455168 257.702918 
L 114.780147 268.891133 
L 115.105127 268.957209 
L 115.430106 262.758854 
L 115.755086 269.085119 
L 116.080066 293.065624 
L 116.405045 269.20866 
L 116.730025 269.268723 
L 117.055004 263.064405 
L 117.379984 269.385479 
L 117.704963 258.32099 
M 118.354922 269.552316 
L 118.679902 269.605748 
L 119.004881 293.576259 
L 119.329861 263.446607 
L 119.65484 293.678236 
M 120.304799 278.686046 
L 120.629779 263.643293 
L 120.954758 269.953047 
L 121.279738 278.82626 
L 121.604717 270.043895 
L 121.929697 270.087786 
L 122.254676 278.958633 
M 123.229615 270.255562 
L 123.554595 270.295582 
L 123.879574 264.071361 
L 124.204554 270.372654 
L 124.529533 264.146924 
L 124.854513 270.446716 
L 125.179492 279.31002 
L 125.504472 294.435717 
L 125.829451 279.379621 
L 126.154431 294.503846 
L 126.47941 279.446285 
L 127.129369 264.419509 
L 127.454349 270.713435 
L 127.779328 264.480373 
L 128.104308 270.772864 
L 128.429287 294.719765 
L 129.079247 264.594204 
L 129.404226 264.621059 
L 130.054185 294.854053 
L 130.379165 270.960885 
L 130.704144 264.722141 
L 131.029124 279.836698 
L 131.679083 259.933757 
L 132.004062 294.994834 
L 132.329042 259.976986 
L 132.979001 295.05726 
L 133.30398 295.077146 
L 133.62896 271.178431 
L 133.953939 264.934154 
L 134.278919 280.042532 
L 134.603898 280.060367 
L 134.928878 264.987001 
L 135.253857 265.00349 
L 135.578837 271.282771 
M 136.878755 271.341982 
L 137.203735 260.234576 
L 137.528714 260.247704 
L 137.853694 265.118561 
L 138.178673 295.311744 
L 138.503653 271.405619 
L 138.828632 280.244473 
L 139.153612 260.306682 
L 139.803571 280.275878 
L 140.12855 271.457964 
L 140.45353 256.37691 
L 140.778509 280.303321 
L 141.428468 280.319639 
L 141.753448 260.378549 
L 142.403407 280.341161 
L 143.053366 260.404625 
L 143.703325 280.363963 
L 144.028305 271.541454 
L 144.353284 271.546011 
L 144.678264 295.467836 
L 145.328223 295.474993 
M 145.978182 280.389994 
L 146.303161 260.443679 
L 146.628141 295.484749 
L 146.95312 265.30532 
M 147.603079 271.57073 
L 148.253038 260.450181 
L 148.578018 260.450181 
L 148.902998 265.307921 
L 149.227977 295.488 
L 149.877936 265.30467 
L 150.202916 295.484099 
L 150.527895 271.564228 
L 150.852875 265.298817 
L 151.502834 295.474342 
M 152.152793 295.467836 
L 152.477772 271.546011 
L 152.802752 260.420906 
L 153.127731 280.365266 
L 153.452711 280.360707 
L 153.77769 271.52843 
L 154.10267 271.523218 
M 154.752629 271.512138 
L 155.402588 260.378549 
L 156.052547 260.3655 
L 156.377527 271.479519 
L 156.702506 295.390256 
L 157.352465 265.193849 
L 157.677445 295.366733 
L 158.002424 265.177504 
L 158.652383 295.34122 
L 158.977363 271.414134 
L 159.302342 260.283765 
L 159.627322 265.132328 
L 160.277281 265.112657 
L 160.60226 260.244423 
L 160.92724 271.355119 
L 161.252219 295.26253 
L 161.902179 265.059457 
L 162.227158 295.229001 
L 162.552138 265.036429 
L 162.877117 280.115104 
L 163.202097 280.103245 
L 163.527076 260.142458 
L 163.852056 271.251126 
L 164.177035 295.156507 
M 164.826994 295.130746 
L 165.151974 295.117524 
M 165.801933 295.090393 
L 166.126912 271.158563 
L 166.451892 264.881178 
L 166.776871 295.047974 
L 167.42683 264.83804 
L 167.75181 295.004143 
L 168.07679 264.808126 
L 168.401769 279.883347 
L 168.726749 279.868031 
L 169.051728 259.903778 
L 169.376708 271.008972 
L 169.701687 294.910875 
L 170.026667 294.894846 
L 170.351646 279.787944 
L 170.676626 270.944164 
L 171.001605 270.927429 
L 171.326585 279.737739 
L 171.651564 294.81117 
M 172.301523 279.686075 
L 172.626503 259.719674 
L 172.951482 270.823386 
L 173.276462 294.723132 
L 173.601441 259.665823 
L 173.926421 294.686737 
L 174.2514 264.487125 
L 174.57638 294.649606 
L 174.90136 264.449962 
M 175.551319 270.674854 
L 175.876298 264.392403 
L 176.201278 294.554125 
L 176.526257 294.534435 
L 176.851237 270.596807 
L 177.501196 259.435457 
L 177.826175 264.273419 
L 178.476134 264.232474 
L 178.801114 259.353566 
L 179.451073 270.433019 
L 179.776052 294.329693 
L 180.101032 294.308427 
L 180.426011 264.105741 
L 180.750991 270.347223 
M 181.40095 264.040374 
L 181.72593 279.108838 
L 182.050909 279.086753 
L 182.375889 270.236908 
L 182.700868 279.041824 
L 183.025848 270.191932 
L 183.350827 270.169062 
L 183.675807 294.064089 
L 184.000786 263.859769 
L 184.325766 270.099614 
M 184.975725 270.052959 
L 185.300704 258.908046 
L 185.625684 270.005506 
L 185.950663 293.89966 
M 186.600622 293.85135 
L 186.925602 293.826804 
L 187.250581 278.712054 
L 187.900541 278.662824 
L 188.22552 293.728342 
M 188.875479 293.678236 
L 189.525438 263.446607 
L 189.850418 263.421098 
L 190.500377 293.55069 
L 190.825356 263.34368 
L 191.150336 269.580829 
M 191.800295 263.265272 
L 192.125274 269.502327 
L 192.450254 278.302893 
L 192.775233 263.185864 
L 193.100213 293.340026 
L 193.425192 263.132046 
L 193.750172 293.286141 
L 194.075152 263.078094 
L 194.400131 278.141234 
L 194.725111 278.113813 
L 195.05009 262.99583 
M 195.700049 269.203587 
L 196.025029 269.176026 
L 196.350008 293.065624 
L 196.999967 257.970478 
L 197.324947 269.063245 
L 197.649926 292.952696 
L 197.974906 292.924189 
L 198.624865 262.685642 
L 198.949844 257.798591 
L 199.599803 268.861701 
L 199.924783 268.832229 
L 200.249762 277.630479 
L 200.899722 277.571337 
L 201.224701 268.713942 
L 201.549681 268.68427 
L 202.19964 257.50286 
L 202.849599 268.563681 
L 203.174578 277.360822 
M 203.824537 277.299442 
L 204.474496 262.147362 
L 204.799476 277.207047 
M 205.449435 268.317462 
L 205.774414 262.022975 
L 206.099394 292.172632 
L 206.749353 257.070582 
L 207.074333 292.077788 
L 207.399312 268.127907 
L 207.724292 261.833146 
M 208.374251 256.910542 
L 208.69923 291.917512 
L 209.02421 267.967395 
L 209.349189 276.762159 
L 209.674169 267.902088 
L 209.999148 276.696754 
L 210.324128 267.836585 
L 210.649107 276.631151 
L 210.974087 267.770883 
L 211.299066 291.655491 
L 211.624046 261.44146 
M 212.274005 261.37458 
L 212.923964 291.488158 
L 213.248943 256.415417 
L 213.573923 291.420863 
L 214.223882 256.313454 
L 214.873841 291.284069 
L 215.198821 261.068681 
L 215.5238 267.297428 
L 215.84878 291.18051 
L 216.498739 260.930009 
L 216.823718 260.895004 
L 217.148698 291.041395 
L 217.473677 291.006278 
L 218.123636 260.754416 
L 218.448616 260.719127 
L 218.773595 266.946513 
L 219.098575 290.829029 
M 219.748534 290.757238 
L 220.073514 275.630727 
L 220.723473 260.468052 
L 221.048452 255.573824 
L 221.373432 255.537193 
L 221.698411 260.358973 
L 222.023391 260.322219 
L 222.34837 266.548947 
L 223.973268 266.36393 
L 224.298247 260.063188 
L 224.623227 260.025931 
L 224.948206 255.13013 
L 225.273186 255.092745 
L 225.923145 266.138145 
L 226.248124 266.100564 
L 226.573104 274.889892 
L 226.898084 289.942288 
L 227.223063 289.90367 
L 227.548043 274.774876 
L 228.198002 259.607615 
L 228.522981 259.568723 
L 228.847961 265.79332 
L 229.17294 289.672209 
L 229.49792 289.633109 
L 229.822899 265.676017 
L 230.147879 259.374068 
L 230.472858 259.334756 
L 230.797838 289.476 
L 231.122817 289.436544 
L 231.447797 265.479098 
L 231.772776 254.3183 
L 232.097756 265.399829 
M 232.747715 274.147229 
L 233.072695 254.158313 
L 233.397674 274.066507 
M 234.047633 265.158528 
L 234.372613 258.85477 
L 234.697592 288.995125 
L 235.347551 253.874377 
L 235.672531 273.78204 
L 235.99751 273.740593 
L 236.32249 253.750916 
L 236.647469 273.658346 
L 236.972449 273.616662 
L 237.297428 253.626751 
L 237.622408 288.624027 
L 238.272367 258.35949 
M 238.922326 264.538822 
L 239.247305 264.496574 
L 239.572285 288.372165 
L 239.897265 253.290633 
L 240.222244 288.287257 
L 240.547224 264.326759 
L 240.872203 273.111036 
L 241.197183 273.06829 
L 241.522162 257.934932 
M 242.172121 252.990495 
L 242.497101 287.986529 
L 242.82208 257.761843 
L 243.14706 272.809113 
L 243.472039 263.937915 
L 243.797019 272.721414 
L 244.121998 272.677895 
L 244.446978 263.806432 
L 244.771957 272.589665 
L 245.096937 263.718022 
L 245.421916 272.501075 
L 245.746896 263.629253 
L 246.071876 272.412124 
L 246.396855 263.540119 
L 246.721835 272.322808 
L 247.046814 263.450619 
L 247.371794 272.233124 
L 247.696773 272.187669 
L 248.021753 263.315201 
L 248.346732 272.097425 
L 248.671712 256.961158 
L 248.996691 287.096855 
L 249.321671 252.011804 
M 249.97163 256.778195 
L 250.296609 286.913509 
L 250.621589 262.949269 
L 250.946568 262.90285 
L 251.271548 286.774251 
L 251.596527 256.547065 
M 252.246486 256.453531 
L 252.571466 271.49714 
L 252.896446 271.45012 
L 253.221425 256.312471 
M 253.871384 256.217922 
L 254.521343 286.303519 
L 254.846323 251.216761 
L 255.171302 286.208138 
L 255.496282 262.242371 
L 255.821261 255.930783 
M 256.47122 255.834558 
L 256.7962 262.048916 
L 257.121179 285.918455 
L 257.446159 255.688406 
L 258.096118 285.771647 
L 258.421097 250.68371 
L 259.071057 285.623842 
L 259.396036 250.535573 
L 260.045995 285.475027 
L 260.370975 255.243969 
L 261.020934 285.325188 
L 261.345913 255.093784 
L 261.670893 261.306452 
M 262.320852 261.205167 
L 262.645831 254.891213 
L 262.970811 285.021329 
L 263.62077 249.879973 
L 263.945749 269.777266 
M 264.595708 260.84638 
L 264.920688 254.53158 
L 265.245667 284.660847 
L 265.570647 284.608399 
L 265.895627 254.375308 
L 266.220606 260.586281 
L 266.545586 284.451374 
L 267.195545 249.3073 
L 267.520524 260.375288 
M 268.170483 269.096412 
L 268.495463 249.094765 
L 268.820442 260.16223 
M 269.470401 268.882307 
L 269.795381 248.880135 
L 270.12036 259.947067 
L 270.44534 283.810585 
L 271.095299 253.520874 
L 271.420278 253.466062 
L 272.070238 283.537639 
L 272.395217 259.564491 
L 272.720197 248.387923 
L 273.045176 259.453613 
L 273.370156 283.315882 
L 274.020115 253.023668 
L 274.345094 252.967588 
L 274.670074 268.00189 
M 275.320033 267.889003 
L 275.645012 252.741812 
L 275.969992 252.685 
L 276.294971 267.718567 
M 276.94493 267.604198 
L 277.26991 252.456259 
L 277.594889 252.398697 
L 277.919869 258.603526 
L 278.244848 282.463576 
L 278.569828 282.405552 
L 278.894808 258.429452 
L 279.219787 247.249917 
L 279.544767 252.048892 
L 279.869746 267.080768 
M 280.519705 266.962989 
L 281.169664 246.895371 
L 281.819623 266.724284 
M 282.469582 266.604555 
L 283.119541 246.534956 
L 283.444521 251.331955 
L 283.7695 266.361865 
M 284.419459 281.330025 
L 284.744439 257.350975 
L 285.069419 251.025912 
L 285.394398 250.964435 
L 285.719378 257.165288 
L 286.044357 281.02138 
M 286.694316 280.895924 
L 287.019296 256.915641 
L 287.344275 250.589325 
L 287.669255 250.526601 
L 287.994234 256.726187 
L 288.319214 265.489846 
M 288.969173 280.452991 
L 289.619132 250.143804 
L 289.944111 245.221062 
L 290.59407 256.212328 
L 290.91905 280.065649 
M 291.569009 279.934546 
L 292.218968 249.622262 
L 292.543948 244.697949 
L 293.193907 255.686046 
L 293.518886 264.44658 
L 293.843866 279.470044 
L 294.168845 279.403453 
L 294.493825 264.245448 
L 295.143784 249.019335 
L 295.468763 244.09316 
L 296.118722 255.077495 
L 296.443702 263.836131 
L 296.768681 278.857685 
M 297.41864 278.719078 
L 297.74362 263.558914 
L 298.393579 248.328444 
L 298.718559 243.400068 
L 299.368518 254.379962 
L 299.693497 263.136356 
L 300.018477 278.155653 
M 300.668436 278.012488 
L 300.993415 262.850024 
L 301.643374 247.614906 
L 301.968354 242.684185 
L 302.293333 247.469349 
L 302.618313 247.395464 
L 302.943292 253.585204 
L 303.268272 262.338954 
L 303.593251 277.355589 
M 304.24321 277.207047 
L 304.56819 262.041867 
L 304.89317 261.9662 
L 305.543129 246.72507 
L 305.868108 241.791312 
L 306.193088 246.573419 
L 306.518067 246.496425 
L 306.843047 252.683065 
L 307.168026 261.433694 
L 307.493006 276.447186 
L 307.817985 276.369095 
M 308.467944 276.213643 
L 308.792924 261.044971 
L 309.117903 260.965752 
L 309.767862 245.717515 
L 310.092842 245.637427 
L 310.417821 240.699784 
L 310.742801 245.477979 
L 311.067781 245.397004 
L 311.39276 251.579675 
L 311.71774 260.326306 
L 312.042719 260.244423 
L 312.367699 275.253581 
M 313.342637 275.006802 
L 313.667617 259.833667 
L 313.992596 259.749907 
L 314.317576 250.839273 
L 314.642555 250.754866 
L 315.292514 239.465569 
L 315.617494 239.380176 
L 315.942473 244.15337 
L 316.267453 244.067304 
L 316.592432 250.244898 
L 316.917412 258.986412 
L 317.242391 258.899321 
L 317.567371 273.903284 
L 317.892351 273.815494 
M 318.867289 273.55176 
L 319.192269 273.462538 
L 319.517248 258.283319 
L 319.842228 258.193364 
L 320.167207 249.276547 
L 320.492187 249.185846 
L 320.817166 242.832543 
L 321.142146 242.741083 
L 321.467125 237.792093 
L 321.792105 237.699863 
L 322.117084 242.466232 
L 322.442064 242.373218 
L 322.767043 248.543874 
L 323.092023 248.450062 
L 323.417002 257.18418 
L 323.741982 257.089556 
L 324.066962 272.085999 
L 324.391941 271.99055 
M 325.691859 271.606459 
L 326.016839 271.508879 
L 326.341818 256.321314 
L 326.666798 256.222856 
L 326.991777 247.29755 
L 327.641736 247.09839 
L 327.966716 240.735992 
L 328.291695 240.635266 
L 328.616675 235.67702 
L 329.266634 235.473218 
L 329.591613 240.22969 
L 329.916593 240.126588 
L 330.241572 246.287168 
L 330.891532 246.078502 
L 331.216511 254.80186 
L 331.86647 254.59016 
L 332.19145 269.57513 
L 332.841409 269.360307 
M 334.141327 268.926398 
L 334.791286 268.705045 
L 335.116265 253.504109 
L 335.766224 253.279339 
L 336.091204 244.339821 
L 336.741163 244.111527 
L 337.066143 237.734495 
L 337.716102 237.502565 
L 338.041081 232.528775 
L 339.01602 232.174286 
L 339.340999 236.914091 
L 339.990958 236.673206 
L 340.315938 242.816108 
L 341.290876 242.447661 
L 341.615856 251.152085 
L 342.590794 250.775153 
L 342.915774 265.739847 
L 343.890713 265.354031 
M 345.51561 264.698085 
L 346.490549 264.293181 
L 346.815528 249.067366 
L 348.115446 248.512023 
L 348.440426 239.544969 
L 349.415364 239.116194 
L 349.740344 232.70969 
L 351.040262 232.120611 
L 351.365242 227.114255 
L 352.990139 226.349476 
L 353.315119 231.052875 
L 354.615037 230.416529 
L 354.940016 236.519254 
L 356.564914 235.69054 
L 356.889894 244.350038 
L 358.514791 243.481721 
L 358.839771 258.396137 
L 360.464668 257.484242 
M 363.064505 255.944781 
L 365.339361 254.498493 
L 365.664341 239.195438 
L 365.98932 242.516187 
L 366.3143 239.876142 
L 367.289238 236.014626 
L 367.614218 233.8926 
L 368.914136 229.60024 
L 369.239115 227.857921 
L 371.188993 222.386893 
L 371.838952 220.685292 
L 372.163931 219.301786 
L 375.088747 212.320003 
L 375.413726 211.575764 
L 376.713645 212.12901 
L 377.038624 211.801393 
L 378.988501 212.769814 
L 379.63846 213.148701 
L 379.96344 212.769814 
L 381.588337 213.843194 
L 381.913317 213.420171 
L 383.213235 214.455683 
L 383.538215 213.987179 
L 384.513153 214.896855 
L 384.838133 214.384258 
L 385.488092 215.065073 
L 385.813071 214.513543 
L 386.78801 215.678745 
L 387.112989 215.065073 
L 387.762948 215.963503 
L 388.087928 215.29318 
L 388.737887 216.310197 
L 389.062867 215.5717 
L 389.712826 216.741563 
L 390.037805 215.919451 
L 390.687764 217.29306 
L 391.012744 216.36598 
L 391.337723 217.141262 
L 391.662703 216.127908 
L 392.312662 217.919299 
L 392.637641 216.741563 
L 392.962621 217.791541 
L 393.2876 216.47096 
L 393.61258 217.630783 
L 393.937559 216.127908 
L 394.587518 219.03658 
L 394.912498 217.141262 
L 395.562457 217.630783 
L 395.887437 217.973823 
L 396.537396 217.630783 
L 396.862375 217.360187 
L 397.187355 217.973823 
L 397.512334 217.630783 
L 398.162293 216.182435 
L 398.487273 53.568 
L 398.487273 53.568 
" style="fill:none;stroke:#2ca02c;stroke-linecap:square;stroke-width:1.5;"/>
   </g>
   <g id="patch_3">
    <path d="M 57.6 307.584 
L 57.6 41.472 
" style="fill:none;stroke:#000000;stroke-linecap:square;stroke-linejoin:miter;stroke-width:0.8;"/>
   </g>
   <g id="patch_4">
    <path d="M 414.72 307.584 
L 414.72 41.472 
" style="fill:none;stroke:#000000;stroke-linecap:square;stroke-linejoin:miter;stroke-width:0.8;"/>
   </g>
   <g id="patch_5">
    <path d="M 57.6 307.584 
L 414.72 307.584 
" style="fill:none;stroke:#000000;stroke-linecap:square;stroke-linejoin:miter;stroke-width:0.8;"/>
   </g>
   <g id="patch_6">
    <path d="M 57.6 41.472 
L 414.72 41.472 
" style="fill:none;stroke:#000000;stroke-linecap:square;stroke-linejoin:miter;stroke-width:0.8;"/>
   </g>
   <g id="legend_1">
    <g id="patch_7">
     <path d="M 64.6 93.506375 
L 136.767188 93.506375 
Q 138.767188 93.506375 138.767188 91.506375 
L 138.767188 48.472 
Q 138.767188 46.472 136.767188 46.472 
L 64.6 46.472 
Q 62.6 46.472 62.6 48.472 
L 62.6 91.506375 
Q 62.6 93.506375 64.6 93.506375 
z
" style="fill:#ffffff;opacity:0.8;stroke:#cccccc;stroke-linejoin:miter;"/>
    </g>
    <g id="line2d_16">
     <path d="M 66.6 54.570438 
L 86.6 54.570438 
" style="fill:none;stroke:#1f77b4;stroke-linecap:square;stroke-width:1.5;"/>
    </g>
    <g id="line2d_17"/>
    <g id="text_15">
     <!-- n=10 -->
     <g transform="translate(94.6 58.070438)scale(0.1 -0.1)">
      <defs>
       <path d="M 54.890625 33.015625 
L 54.890625 0 
L 45.90625 0 
L 45.90625 32.71875 
Q 45.90625 40.484375 42.875 44.328125 
Q 39.84375 48.1875 33.796875 48.1875 
Q 26.515625 48.1875 22.3125 43.546875 
Q 18.109375 38.921875 18.109375 30.90625 
L 18.109375 0 
L 9.078125 0 
L 9.078125 54.6875 
L 18.109375 54.6875 
L 18.109375 46.1875 
Q 21.34375 51.125 25.703125 53.5625 
Q 30.078125 56 35.796875 56 
Q 45.21875 56 50.046875 50.171875 
Q 54.890625 44.34375 54.890625 33.015625 
z
" id="DejaVuSans-110"/>
       <path d="M 10.59375 45.40625 
L 73.1875 45.40625 
L 73.1875 37.203125 
L 10.59375 37.203125 
z
M 10.59375 25.484375 
L 73.1875 25.484375 
L 73.1875 17.1875 
L 10.59375 17.1875 
z
" id="DejaVuSans-61"/>
      </defs>
      <use xlink:href="#DejaVuSans-110"/>
      <use x="63.378906" xlink:href="#DejaVuSans-61"/>
      <use x="147.167969" xlink:href="#DejaVuSans-49"/>
      <use x="210.791016" xlink:href="#DejaVuSans-48"/>
     </g>
    </g>
    <g id="line2d_18">
     <path d="M 66.6 69.248563 
L 86.6 69.248563 
" style="fill:none;stroke:#ff7f0e;stroke-linecap:square;stroke-width:1.5;"/>
    </g>
    <g id="line2d_19"/>
    <g id="text_16">
     <!-- n=100 -->
     <g transform="translate(94.6 72.748563)scale(0.1 -0.1)">
      <use xlink:href="#DejaVuSans-110"/>
      <use x="63.378906" xlink:href="#DejaVuSans-61"/>
      <use x="147.167969" xlink:href="#DejaVuSans-49"/>
      <use x="210.791016" xlink:href="#DejaVuSans-48"/>
      <use x="274.414062" xlink:href="#DejaVuSans-48"/>
     </g>
    </g>
    <g id="line2d_20">
     <path d="M 66.6 83.926688 
L 86.6 83.926688 
" style="fill:none;stroke:#2ca02c;stroke-linecap:square;stroke-width:1.5;"/>
    </g>
    <g id="line2d_21"/>
    <g id="text_17">
     <!-- n=1000 -->
     <g transform="translate(94.6 87.426688)scale(0.1 -0.1)">
      <use xlink:href="#DejaVuSans-110"/>
      <use x="63.378906" xlink:href="#DejaVuSans-61"/>
      <use x="147.167969" xlink:href="#DejaVuSans-49"/>
      <use x="210.791016" xlink:href="#DejaVuSans-48"/>
      <use x="274.414062" xlink:href="#DejaVuSans-48"/>
      <use x="338.037109" xlink:href="#DejaVuSans-48"/>
     </g>
    </g>
   </g>
  </g>
 </g>
 <defs>
  <clipPath id="p2510e6c7e6">
   <rect height="266.112" width="357.12" x="57.6" y="41.472"/>
  </clipPath>
 </defs>
</svg>
